<?xml version="1.0" encoding="UTF-8"?>
<svg id="_图层_1" data-name="图层 1" xmlns="http://www.w3.org/2000/svg" viewBox="0 0 100 100">
  <defs>
    <style>
      .cls-1 {
        fill: #10b0ff;
      }
    </style>
  </defs>
  <path class="cls-1" d="m94.97,15.47v7.44c0,.1.03.2.03.3v55.64c0,4.1-3.15,7.48-7.02,7.55h-.13c-3.95,0-7.16-3.21-7.16-7.15v-.24h4.39c3.41,0,6.18-2.77,6.18-6.18V12.74c0-3.41-2.77-6.18-6.18-6.18H14.91c-3.41,0-6.18,2.77-6.18,6.18v60.1c0,3.41,2.77,6.18,6.18,6.18h4.38c-.08,4.02-3.19,7.32-7.01,7.39h-.14c-3.94,0-7.15-3.21-7.15-7.15V23.21c0-.1.02-.2.03-.3v-7.44C2.07,16.79,0,19.76,0,23.21v56.04C0,85.77,5.14,91.08,11.59,91.38c.18.04.37.07.56.07h75.7c.19,0,.37-.03.55-.07,6.53-.3,11.6-5.94,11.6-12.52V23.21c0-3.45-2.07-6.42-5.03-7.74ZM12.72,72.83V12.74c0-1.2.98-2.18,2.18-2.18h70.17c1.2,0,2.18.98,2.18,2.18v60.1c0,1.2-.98,2.18-2.18,2.18h-4.39v-.42c0-5.12-4.17-9.29-9.29-9.29H28.59c-5.12,0-9.29,4.17-9.29,9.29v.42h-4.39c-1.2,0-2.18-.98-2.18-2.18Zm9.06,13.61c1.58-2.13,2.51-4.78,2.51-7.59v-4.26c0-2.37,1.92-4.29,4.29-4.29h42.81c2.37,0,4.29,1.92,4.29,4.29v4.66c0,2.69.89,5.18,2.37,7.19H21.79Z"/>
  <path class="cls-1" d="m62.25,75.52h-24.5c-.83,0-1.5.67-1.5,1.5s.67,1.5,1.5,1.5h24.5c.83,0,1.5-.67,1.5-1.5s-.67-1.5-1.5-1.5Z"/>
  <path class="cls-1" d="m22.03,50.94c.17.06.4.1.68.13.29.03.64.05,1.07.05s.8-.02,1.08-.05c.28-.03.51-.08.67-.13.17-.06.29-.13.36-.22.07-.09.11-.19.11-.3v-20.6c0-.11-.04-.21-.11-.3-.07-.09-.19-.16-.36-.22-.17-.06-.39-.1-.67-.13-.28-.03-.64-.05-1.08-.05s-.78.02-1.06.05c-.28.03-.51.08-.68.13-.17.06-.3.13-.37.22-.07.09-.11.19-.11.3v20.6c0,.11.04.21.11.3.07.09.19.16.36.22Z"/>
  <path class="cls-1" d="m31.19,50.94c.16.06.38.1.65.13.27.03.61.05,1.01.05s.75-.02,1.02-.05c.26-.03.48-.08.65-.13.17-.06.28-.13.35-.22.06-.09.09-.19.09-.3v-17.75h.03l6.1,17.73c.03.12.1.23.2.32.1.09.24.17.41.23.17.06.4.11.67.13.27.03.59.04.98.04s.71,0,.98-.03c.27-.02.49-.05.67-.11.17-.06.31-.13.41-.23.1-.09.17-.22.22-.36l6.32-17.73h.03v17.75c0,.11.03.21.1.3.07.09.18.16.34.22.16.06.37.1.64.13.27.03.61.05,1.01.05s.76-.02,1.03-.05c.27-.03.49-.08.65-.13.16-.06.28-.13.34-.22.06-.09.09-.19.09-.3v-19.43c0-.28-.04-.53-.11-.75-.07-.22-.18-.4-.32-.56s-.32-.27-.54-.35c-.22-.08-.48-.12-.78-.12h-2.98c-.42,0-.78.04-1.1.13-.31.08-.59.23-.82.43s-.43.47-.61.79c-.17.33-.33.72-.48,1.2l-4.89,12.96h-.07l-4.72-12.99c-.13-.47-.29-.87-.47-1.19s-.4-.58-.67-.78c-.27-.2-.59-.34-.96-.42-.37-.08-.81-.13-1.33-.13h-2.9c-.51,0-.91.15-1.21.46-.3.3-.46.74-.46,1.31v19.43c0,.11.03.21.09.3.06.09.17.16.34.22Z"/>
  <path class="cls-1" d="m62.74,48.47c.96.95,2.12,1.67,3.5,2.17,1.38.5,2.94.75,4.68.75.59,0,1.19-.03,1.78-.08.59-.06,1.17-.14,1.75-.25.58-.11,1.14-.25,1.68-.41.54-.16.99-.31,1.36-.46.37-.15.61-.34.72-.6s.18-.55.18-.88v-8.68c0-.22-.03-.42-.08-.6-.06-.17-.14-.32-.24-.45-.11-.12-.23-.22-.37-.28-.14-.06-.3-.09-.48-.09h-7.37c-.1,0-.19.03-.27.09-.08.06-.15.16-.2.29-.06.13-.1.3-.13.51-.03.21-.04.48-.04.79,0,.61.06,1.04.17,1.29s.27.38.47.38h4.13v5.06c-.42.22-.87.39-1.35.5-.48.11-.97.17-1.47.17-1.01,0-1.94-.16-2.77-.49-.84-.33-1.55-.81-2.15-1.45-.6-.64-1.06-1.43-1.39-2.38-.33-.95-.5-2.05-.5-3.29,0-1.13.16-2.17.49-3.11s.79-1.74,1.4-2.41c.61-.67,1.34-1.19,2.19-1.55.85-.37,1.81-.55,2.87-.55.99,0,1.86.1,2.6.3.75.2,1.39.42,1.93.66s.97.46,1.3.66c.33.2.56.3.71.3.1,0,.19-.03.26-.08.07-.06.13-.15.19-.29.05-.14.09-.33.12-.56.03-.24.04-.52.04-.84,0-.56-.03-.99-.1-1.27-.07-.29-.18-.51-.33-.67s-.42-.34-.8-.56c-.38-.21-.86-.41-1.44-.6-.58-.19-1.25-.34-2.03-.47-.78-.13-1.63-.19-2.58-.19-1.72,0-3.28.26-4.68.79-1.4.53-2.59,1.29-3.58,2.28-.99,1-1.75,2.2-2.29,3.62-.54,1.42-.81,3.03-.81,4.81s.25,3.28.76,4.64c.5,1.37,1.24,2.52,2.19,3.47Z"/>
</svg>