<?xml version="1.0" encoding="UTF-8"?>
<svg id="_图层_1" data-name="图层 1" xmlns="http://www.w3.org/2000/svg" viewBox="0 0 100 100">
  <defs>
    <style>
      .cls-1 {
        fill: #10b0ff;
      }
    </style>
  </defs>
  <path class="cls-1" d="m94.97,15.47v7.44c0,.1.03.2.03.3v55.64c0,4.1-3.15,7.48-7.02,7.55h-.13c-3.95,0-7.16-3.21-7.16-7.15v-.24h4.39c3.41,0,6.18-2.77,6.18-6.18V12.74c0-3.41-2.77-6.18-6.18-6.18H14.91c-3.41,0-6.18,2.77-6.18,6.18v60.1c0,3.41,2.77,6.18,6.18,6.18h4.38c-.08,4.02-3.19,7.32-7.01,7.39h-.14c-3.94,0-7.15-3.21-7.15-7.15V23.21c0-.1.02-.2.03-.3v-7.44C2.07,16.79,0,19.76,0,23.21v56.04C0,85.77,5.14,91.08,11.59,91.38c.18.04.37.07.56.07h75.7c.19,0,.37-.03.55-.07,6.53-.3,11.6-5.94,11.6-12.52V23.21c0-3.45-2.07-6.42-5.03-7.74ZM12.72,72.83V12.74c0-1.2.98-2.18,2.18-2.18h70.17c1.2,0,2.18.98,2.18,2.18v60.1c0,1.2-.98,2.18-2.18,2.18h-4.39v-.42c0-5.12-4.17-9.29-9.29-9.29H28.59c-5.12,0-9.29,4.17-9.29,9.29v.42h-4.39c-1.2,0-2.18-.98-2.18-2.18Zm9.06,13.61c1.58-2.13,2.51-4.78,2.51-7.59v-4.26c0-2.37,1.92-4.29,4.29-4.29h42.81c2.37,0,4.29,1.92,4.29,4.29v4.66c0,2.69.89,5.18,2.37,7.19H21.79Z"/>
  <path class="cls-1" d="m19.71,50.78c.28-.03.51-.08.67-.13.17-.06.29-.13.36-.22.07-.09.11-.19.11-.3v-8.31h1.38c.47,0,.89.07,1.25.22.36.15.68.36.95.65s.53.64.75,1.07.46.92.69,1.47l1.96,4.87c.04.13.1.25.17.35s.18.17.35.24c.16.06.38.1.67.13.28.02.66.03,1.13.03.56,0,1.01-.01,1.33-.03.33-.02.57-.06.74-.12.17-.06.28-.13.32-.21.04-.08.07-.19.07-.31,0-.11-.03-.27-.08-.46-.06-.2-.17-.51-.34-.94l-1.84-4.3c-.21-.52-.43-.98-.66-1.39s-.46-.78-.72-1.1c-.25-.32-.52-.59-.81-.82-.29-.22-.59-.42-.92-.57.67-.21,1.27-.49,1.8-.84.53-.35.97-.76,1.33-1.23.36-.47.63-1.01.82-1.61.19-.6.28-1.27.28-2,0-.87-.13-1.63-.39-2.3-.26-.67-.63-1.25-1.12-1.74s-1.08-.88-1.79-1.19-1.49-.52-2.37-.64c-.3-.03-.64-.06-1.01-.08s-.84-.03-1.42-.03h-5.65c-.37,0-.68.11-.94.33-.25.22-.38.58-.38,1.07v19.8c0,.11.03.21.1.3.07.09.19.16.35.22.17.06.4.1.68.13.29.03.64.05,1.07.05s.8-.02,1.08-.05Zm1.15-18.47h1.99c.51,0,.9.02,1.19.05.29.03.54.08.77.13.74.2,1.28.55,1.6,1.04.33.5.49,1.1.49,1.82,0,.47-.08.9-.24,1.28s-.39.71-.71.99c-.32.28-.71.49-1.18.64-.47.15-1.02.23-1.65.23h-2.26v-6.19Z"/>
  <path class="cls-1" d="m34.64,50.78c.29.03.7.05,1.21.05.48,0,.87-.01,1.17-.03s.53-.06.69-.13c.16-.06.28-.15.35-.25s.13-.24.18-.4l1.38-4.26h8.19l1.47,4.38c.04.15.1.26.17.35.07.09.19.16.35.21.17.05.41.08.73.1.32.02.77.03,1.34.03s.98-.01,1.3-.04c.31-.03.53-.1.66-.22.12-.12.17-.29.14-.53-.03-.24-.12-.56-.25-.96l-6.74-19.33c-.07-.21-.15-.38-.24-.51-.1-.12-.25-.22-.47-.28-.22-.06-.53-.1-.92-.12-.39-.02-.92-.03-1.58-.03-.57,0-1.03,0-1.38.03-.35.02-.62.06-.82.12-.2.06-.34.15-.43.27-.09.12-.17.27-.24.46l-6.72,19.35c-.13.39-.22.71-.25.94-.03.24,0,.42.12.55.11.13.31.21.61.24Zm9.05-17.7h.02l3.08,9.27h-6.19l3.08-9.27Z"/>
  <path class="cls-1" d="m58.91,49.6c.07.27.15.49.25.65.1.16.26.29.49.37s.53.14.92.17c.39.03.91.04,1.56.04s1.12-.01,1.49-.04c.38-.03.67-.09.89-.18.22-.09.38-.22.48-.38.1-.16.18-.37.24-.63l3.3-13.82h.03l3.49,13.82c.06.27.13.49.24.65.1.16.26.29.49.37s.53.14.92.17c.39.03.9.04,1.54.04.57,0,1.04-.01,1.42-.04.37-.03.67-.08.91-.17.24-.08.41-.21.53-.37s.21-.38.28-.65l5.01-18.98c.1-.42.16-.74.18-.99s-.04-.42-.16-.55c-.12-.12-.32-.2-.6-.23s-.66-.04-1.15-.04c-.53,0-.94.01-1.23.04s-.52.08-.67.15c-.16.07-.26.17-.32.3-.06.13-.1.28-.13.46l-3.83,16.65h-.03l-4.11-16.58c-.04-.22-.11-.41-.18-.54-.08-.13-.21-.24-.38-.31s-.42-.12-.74-.14-.75-.03-1.29-.03c-.51,0-.91.01-1.21.04s-.54.08-.72.15c-.17.07-.3.18-.37.31-.07.13-.13.31-.18.52l-3.98,16.58h-.02l-3.83-16.7c-.03-.21-.08-.38-.14-.5-.06-.12-.16-.21-.32-.27-.16-.06-.39-.1-.7-.12-.31-.02-.73-.03-1.25-.03-.57,0-1.02.01-1.34.04-.32.03-.55.1-.69.23s-.21.3-.19.53c.01.23.07.55.17.95l4.96,19.03Z"/>
  <path class="cls-1" d="m62.25,75.52h-24.5c-.83,0-1.5.67-1.5,1.5s.67,1.5,1.5,1.5h24.5c.83,0,1.5-.67,1.5-1.5s-.67-1.5-1.5-1.5Z"/>
</svg>