<?xml version="1.0" encoding="UTF-8"?>
<svg id="_图层_1" data-name="图层 1" xmlns="http://www.w3.org/2000/svg" viewBox="0 0 100 100">
  <defs>
    <style>
      .cls-1 {
        fill: #10b0ff;
      }

      .cls-2 {
        fill: none;
      }
    </style>
  </defs>
  <g>
    <path class="cls-1" d="m94.97,15.47v7.44c0,.1.03.2.03.3v55.64c0,4.1-3.15,7.48-7.02,7.55h-.13c-3.95,0-7.16-3.21-7.16-7.15v-.24h4.39c3.41,0,6.18-2.77,6.18-6.18V12.74c0-3.41-2.77-6.18-6.18-6.18H14.91c-3.41,0-6.18,2.77-6.18,6.18v60.1c0,3.41,2.77,6.18,6.18,6.18h4.38c-.08,4.02-3.19,7.32-7.01,7.39h-.14c-3.94,0-7.15-3.21-7.15-7.15V23.21c0-.1.02-.2.03-.3v-7.44C2.07,16.79,0,19.76,0,23.21v56.04C0,85.77,5.14,91.08,11.59,91.38c.18.04.37.07.56.07h75.7c.19,0,.37-.03.55-.07,6.53-.3,11.6-5.94,11.6-12.52V23.21c0-3.45-2.07-6.42-5.03-7.74ZM12.72,72.83V12.74c0-1.2.98-2.18,2.18-2.18h70.17c1.2,0,2.18.98,2.18,2.18v60.1c0,1.2-.98,2.18-2.18,2.18h-4.39v-.42c0-5.12-4.17-9.29-9.29-9.29H28.59c-5.12,0-9.29,4.17-9.29,9.29v.42h-4.39c-1.2,0-2.18-.98-2.18-2.18Zm9.06,13.61c1.58-2.13,2.51-4.78,2.51-7.59v-4.26c0-2.37,1.92-4.29,4.29-4.29h42.81c2.37,0,4.29,1.92,4.29,4.29v4.66c0,2.69.89,5.18,2.37,7.19H21.79Z"/>
    <path class="cls-1" d="m62.25,75.52h-24.5c-.83,0-1.5.67-1.5,1.5s.67,1.5,1.5,1.5h24.5c.83,0,1.5-.67,1.5-1.5s-.67-1.5-1.5-1.5Z"/>
  </g>
  <path class="cls-1" d="m55.5,35.14l-6.09-6.09-1.84-1.84c-2.37-2.37-6.21-2.37-8.58,0l-8.56,8.55c-2.37,2.37-2.37,6.21,0,8.58l7.94,7.93c2.37,2.37,6.21,2.37,8.58,0l2.07-2.07,6.48-6.48c2.37-2.37,2.37-6.21,0-8.58Z"/>
  <path class="cls-1" d="m69.55,34.91l-7.93-7.94c-1.18-1.18-2.73-1.78-4.29-1.78s-3.1.59-4.28,1.78l-.88.89,1.14,1.16-.02.02,1.8,1.8,3.14,3.15c3,2.99,3,7.87,0,10.86l-5.14,5.14-.19.19-1.16,1.14.71.71c1.18,1.18,2.73,1.78,4.29,1.78s3.1-.59,4.28-1.78l8.55-8.56c2.37-2.36,2.37-6.21,0-8.57Z"/>
  <line class="cls-2" x1="52.79" y1="48.75" x2="51.51" y2="50"/>
</svg>