<?xml version="1.0" encoding="UTF-8"?>
<svg id="_图层_1" data-name="图层 1" xmlns="http://www.w3.org/2000/svg" viewBox="0 0 100 100">
  <defs>
    <style>
      .cls-1 {
        fill: #10b0ff;
      }
    </style>
  </defs>
  <path class="cls-1" d="m94.97,15.47v7.44c0,.1.03.2.03.3v55.64c0,4.1-3.15,7.48-7.02,7.55h-.13c-3.95,0-7.16-3.21-7.16-7.15v-.24h4.39c3.41,0,6.18-2.77,6.18-6.18V12.74c0-3.41-2.77-6.18-6.18-6.18H14.91c-3.41,0-6.18,2.77-6.18,6.18v60.1c0,3.41,2.77,6.18,6.18,6.18h4.38c-.08,4.02-3.19,7.32-7.01,7.39h-.14c-3.94,0-7.15-3.21-7.15-7.15V23.21c0-.1.02-.2.03-.3v-7.44C2.07,16.79,0,19.76,0,23.21v56.04C0,85.77,5.14,91.08,11.59,91.38c.18.04.37.07.56.07h75.7c.19,0,.37-.03.55-.07,6.53-.3,11.6-5.94,11.6-12.52V23.21c0-3.45-2.07-6.42-5.03-7.74ZM12.72,72.83V12.74c0-1.2.98-2.18,2.18-2.18h70.17c1.2,0,2.18.98,2.18,2.18v60.1c0,1.2-.98,2.18-2.18,2.18h-4.39v-.42c0-5.12-4.17-9.29-9.29-9.29H28.59c-5.12,0-9.29,4.17-9.29,9.29v.42h-4.39c-1.2,0-2.18-.98-2.18-2.18Zm9.06,13.61c1.58-2.13,2.51-4.78,2.51-7.59v-4.26c0-2.37,1.92-4.29,4.29-4.29h42.81c2.37,0,4.29,1.92,4.29,4.29v4.66c0,2.69.89,5.18,2.37,7.19H21.79Z"/>
  <path class="cls-1" d="m62.25,75.52h-24.5c-.83,0-1.5.67-1.5,1.5s.67,1.5,1.5,1.5h24.5c.83,0,1.5-.67,1.5-1.5s-.67-1.5-1.5-1.5Z"/>
  <path class="cls-1" d="m37.39,51.9c1.37,1.37,3.19,2.13,5.13,2.13s3.76-.75,5.13-2.13l2.07-2.07,2.08,2.07c1.37,1.37,3.19,2.13,5.13,2.13s3.76-.75,5.13-2.13l7.41-7.41c1.37-1.37,2.13-3.19,2.13-5.13s-.75-3.76-2.13-5.13l-6.88-6.88c-2.83-2.83-7.43-2.83-10.26,0l-2.08,2.08-2.07-2.07c-2.83-2.83-7.43-2.83-10.26,0l-7.42,7.42c-2.83,2.83-2.83,7.43,0,10.26l6.89,6.88Zm17.78-21.73c.63-.63,1.47-.95,2.3-.95s1.67.32,2.3.95l6.88,6.88h0c.62.62.96,1.43.96,2.3s-.34,1.69-.96,2.3l-7.41,7.41c-1.23,1.23-3.37,1.23-4.61,0l-2.08-2.07,2.51-2.51c2.83-2.83,2.83-7.43,0-10.26l-1.98-1.98,2.08-2.07Zm-7.42,12.02c-1.27-1.27-1.27-3.34,0-4.61l2.52-2.51,1.98,1.98c1.27,1.27,1.27,3.34,0,4.61l-2.51,2.51-1.98-1.98Zm-14.42-4.61l7.42-7.42c.63-.63,1.47-.95,2.3-.95s1.67.32,2.3.95l2.07,2.07-2.52,2.51c-2.83,2.83-2.83,7.43,0,10.26l1.98,1.98-2.07,2.07c-1.23,1.23-3.37,1.23-4.61,0l-6.89-6.88c-1.27-1.27-1.27-3.34,0-4.61Z"/>
</svg>