<?xml version="1.0" encoding="UTF-8"?>
<svg id="_图层_1" data-name="图层 1" xmlns="http://www.w3.org/2000/svg" viewBox="0 0 100 100">
  <defs>
    <style>
      .cls-1 {
        fill: #10b0ff;
      }
    </style>
  </defs>
  <path class="cls-1" d="m18.48,65.08c-.22-.07-.52-.13-.89-.18-.37-.04-.85-.07-1.43-.07s-1.04.02-1.41.07c-.37.04-.68.1-.9.18-.23.07-.4.17-.49.29-.1.12-.15.25-.15.4v27.32c0,.15.05.28.15.4.09.12.26.22.48.29.22.07.52.13.91.18.38.04.85.07,1.42.07s1.06-.02,1.43-.07c.37-.04.67-.1.89-.18s.38-.17.48-.29c.1-.12.15-.25.15-.4v-27.32c0-.15-.05-.28-.15-.4-.1-.12-.26-.22-.48-.29Z"/>
  <path class="cls-1" d="m57.63,65.58c-.19-.2-.43-.36-.72-.46-.29-.1-.64-.16-1.04-.16h-3.96c-.55,0-1.04.05-1.45.17-.42.11-.78.3-1.09.57-.31.27-.57.62-.8,1.05s-.44.96-.64,1.59l-6.48,17.19h-.09l-6.26-17.24c-.18-.63-.39-1.15-.63-1.58-.24-.42-.54-.77-.89-1.03-.36-.26-.78-.45-1.27-.56-.49-.11-1.08-.17-1.77-.17h-3.85c-.67,0-1.21.2-1.61.6-.4.4-.6.98-.6,1.74v25.78c0,.15.04.28.12.4.08.12.23.22.45.29.22.07.5.13.86.18.36.04.8.07,1.34.07s1-.02,1.35-.07c.35-.04.64-.1.86-.18s.38-.17.46-.29c.08-.12.12-.25.12-.4v-23.54h.04l8.09,23.52c.04.16.13.31.27.42.13.12.32.22.55.3.23.08.53.14.88.18.36.03.79.05,1.3.05s.94,0,1.3-.03c.36-.02.65-.07.88-.14.23-.07.41-.17.55-.3.13-.12.23-.29.29-.48l8.38-23.52h.04v23.54c0,.15.04.28.13.4.09.12.24.22.45.29.21.07.49.13.85.18.36.04.8.07,1.34.07s1.01-.02,1.36-.07c.36-.04.64-.1.86-.18.21-.07.36-.17.45-.29.08-.12.12-.25.12-.4v-25.78c0-.37-.05-.7-.15-1-.1-.29-.24-.54-.42-.74Z"/>
  <path class="cls-1" d="m86.23,66.89c-.2-.21-.56-.45-1.06-.74-.51-.28-1.15-.55-1.91-.79-.77-.25-1.66-.45-2.69-.63-1.03-.17-2.17-.26-3.42-.26-2.28,0-4.35.35-6.2,1.05-1.86.7-3.44,1.71-4.75,3.03-1.31,1.32-2.32,2.92-3.04,4.81s-1.07,4.01-1.07,6.38.34,4.35,1.01,6.16c.67,1.81,1.64,3.35,2.91,4.61,1.27,1.26,2.81,2.22,4.64,2.89,1.82.66,3.89.99,6.2.99.79,0,1.58-.04,2.36-.11.78-.07,1.56-.19,2.32-.34.77-.15,1.51-.33,2.23-.54s1.31-.41,1.8-.6c.48-.19.8-.46.96-.79.15-.34.23-.73.23-1.17v-11.51c0-.3-.04-.56-.11-.79-.07-.23-.18-.43-.33-.59s-.31-.29-.49-.37-.4-.12-.64-.12h-9.77c-.13,0-.25.04-.36.12-.1.08-.19.21-.27.38-.07.17-.13.4-.17.68-.04.28-.06.63-.06,1.05,0,.8.07,1.38.22,1.71.15.34.36.5.63.5h5.48v6.71c-.55.3-1.15.52-1.79.67-.64.15-1.29.22-1.94.22-1.34,0-2.57-.22-3.68-.65-1.11-.43-2.06-1.07-2.85-1.92-.79-.85-1.41-1.9-1.85-3.16-.44-1.26-.66-2.71-.66-4.37,0-1.51.22-2.88.65-4.13.43-1.24,1.05-2.31,1.86-3.19.8-.89,1.77-1.57,2.91-2.06s2.4-.73,3.8-.73c1.31,0,2.46.13,3.46.4.99.27,1.84.56,2.56.87.72.31,1.29.6,1.72.87s.75.4.94.4c.13,0,.25-.04.35-.11.1-.07.18-.2.25-.39.06-.18.12-.43.15-.75.04-.31.06-.69.06-1.12,0-.75-.04-1.31-.13-1.69-.09-.38-.24-.68-.43-.88Z"/>
  <path class="cls-1" d="m69.09,5.61H19.82c-5.05,0-9.15,4.47-9.15,9.98v44.24h5V15.59c0-2.75,1.86-4.98,4.15-4.98h45.15v15.55c0,2.35,1.91,4.26,4.26,4.26h15.09v29.41h5V27.66l-20.24-22.05Z"/>
</svg>