<?xml version="1.0" encoding="UTF-8"?>
<svg id="_图层_1" data-name="图层 1" xmlns="http://www.w3.org/2000/svg" viewBox="0 0 100 100">
  <defs>
    <style>
      .cls-1 {
        fill: #10b0ff;
      }
    </style>
  </defs>
  <path class="cls-1" d="m26.73,92.15l-2.5-5.84c-.29-.7-.59-1.33-.89-1.89-.31-.56-.63-1.05-.97-1.49-.35-.43-.71-.8-1.1-1.11-.39-.31-.81-.56-1.25-.78.92-.29,1.73-.67,2.45-1.15s1.32-1.03,1.81-1.67c.49-.64.86-1.37,1.11-2.19.25-.82.38-1.72.38-2.72,0-1.18-.18-2.22-.53-3.13-.35-.91-.86-1.69-1.52-2.36-.66-.67-1.47-1.2-2.43-1.62-.95-.41-2.03-.7-3.22-.87-.41-.05-.87-.08-1.37-.11-.5-.03-1.15-.05-1.92-.05h-7.67c-.5,0-.93.15-1.27.45-.35.3-.52.78-.52,1.45v26.91c0,.15.05.29.14.41s.25.22.48.3c.23.08.54.14.93.18.39.05.88.07,1.46.07s1.08-.02,1.47-.07c.38-.05.69-.11.92-.18.23-.08.39-.18.49-.3.1-.12.15-.26.15-.41v-11.29h1.88c.64,0,1.21.1,1.69.3.49.2.92.49,1.29.88.37.39.72.88,1.02,1.46.31.58.62,1.24.94,1.99l2.66,6.62c.06.18.14.34.23.47.09.13.25.24.47.32.22.08.52.14.91.17.38.03.89.05,1.53.05.76,0,1.37-.02,1.81-.05.44-.03.78-.08,1.01-.16.23-.08.37-.17.44-.29.06-.11.09-.25.09-.42,0-.15-.04-.36-.11-.63-.08-.26-.23-.69-.46-1.27Zm-7.51-16.47c-.21.52-.53.97-.96,1.34-.43.38-.96.67-1.6.87-.64.21-1.39.31-2.24.31h-3.07v-8.41h2.7c.69,0,1.23.02,1.61.07.39.05.74.11,1.04.18,1.01.27,1.73.75,2.18,1.42.44.67.66,1.5.66,2.47,0,.64-.11,1.22-.32,1.74Z"/>
  <path class="cls-1" d="m45.9,66.31c-.09-.29-.2-.52-.33-.69-.13-.17-.34-.29-.64-.38-.3-.08-.71-.14-1.25-.16-.53-.03-1.25-.04-2.15-.04-.78,0-1.4.01-1.88.04-.47.02-.84.08-1.11.16-.27.09-.46.21-.59.37-.12.16-.23.37-.32.63l-9.14,26.29c-.18.53-.3.96-.34,1.28-.05.32,0,.57.16.74.15.18.43.29.82.33.4.05.95.07,1.65.07.66,0,1.19-.02,1.59-.05.4-.03.72-.09.94-.17.22-.08.38-.2.48-.34.1-.15.18-.33.24-.54l1.88-5.79h11.13l1.99,5.95c.06.2.14.36.23.48s.25.22.48.29c.23.07.56.12,1,.14.44.03,1.04.04,1.82.04s1.34-.02,1.76-.06c.43-.04.73-.14.89-.3.17-.16.23-.4.18-.72-.05-.32-.16-.76-.34-1.31l-9.16-26.27Zm-8.66,17.13l4.19-12.6h.02l4.19,12.6h-8.41Z"/>
  <path class="cls-1" d="m94.46,65.42c-.17-.17-.44-.27-.81-.31-.38-.04-.9-.06-1.57-.06-.72,0-1.27.02-1.67.06-.4.04-.7.11-.92.21-.21.1-.36.24-.44.41-.08.18-.14.38-.18.63l-5.2,22.63h-.05l-5.59-22.54c-.06-.31-.15-.55-.25-.73s-.28-.32-.52-.42c-.24-.1-.57-.16-1.01-.19-.43-.03-1.02-.05-1.75-.05-.69,0-1.24.02-1.65.06-.41.04-.74.11-.97.21-.24.1-.41.24-.5.42-.1.18-.18.42-.24.71l-5.41,22.54h-.02l-5.2-22.7c-.05-.29-.11-.51-.18-.68-.08-.16-.22-.28-.44-.37-.21-.08-.53-.14-.95-.16-.42-.03-.99-.04-1.71-.04-.78,0-1.38.02-1.82.06-.43.04-.75.14-.94.31-.19.17-.28.41-.26.72.02.31.09.74.23,1.29l6.73,25.86c.09.37.21.66.34.88.14.22.36.39.66.5.31.11.72.19,1.25.23.53.04,1.23.06,2.12.06.84,0,1.51-.02,2.03-.06.51-.04.92-.12,1.21-.24.3-.12.52-.29.65-.52.14-.22.24-.51.32-.86l4.49-18.78h.05l4.74,18.78c.08.37.18.66.32.88.14.22.36.39.66.5.31.11.72.19,1.25.23.52.04,1.22.06,2.09.06.78,0,1.42-.02,1.92-.06.5-.04.92-.12,1.24-.23.32-.12.56-.28.72-.5.16-.22.29-.52.38-.88l6.8-25.79c.14-.56.22-1.01.24-1.34.03-.33-.05-.58-.22-.74Z"/>
  <path class="cls-1" d="m14.25,15.02c0-2.75,1.86-4.98,4.15-4.98h45.15v15.55c0,2.35,1.91,4.26,4.26,4.26h15.09v29.41h5V27.09l-20.24-22.05H18.4c-5.05,0-9.15,4.47-9.15,9.98v44.24h5V15.02Z"/>
</svg>