<?xml version="1.0" encoding="UTF-8"?>
<svg id="_图层_1" data-name="图层 1" xmlns="http://www.w3.org/2000/svg" viewBox="0 0 100 100">
  <defs>
    <style>
      .cls-1 {
        fill: #10b0ff;
      }
    </style>
  </defs>
  <path class="cls-1" d="m94.44,79.99l-5.56-23.23c-.45-1.89-1.97-3.37-3.88-3.77l-25.93-5.46,25.91-5.33c1.92-.39,3.45-1.88,3.9-3.78l5.53-23.12c.47-1.95-.1-4.08-1.65-5.35s-3.61-1.5-5.39-.65L16.92,43.04c-1.96.94-3.09,2.97-2.84,5.18.21,1.77,1.42,3.27,3.02,4.04l2.75,1.32c.16-.17.32-.34.49-.51l.03-.03c1.52-1.52,1.08-4.08-.85-5.01l-.51-.24s-.11-.05-.11-.18.07-.16.11-.18h0L89.47,13.68s.05-.03.09-.03c.03,0,.07.01.12.05.1.08.08.15.07.2l-5.6,23.38-.15.15-29.83,6.14c-1.55.32-2.71,1.47-3.08,2.94.21.08.4.15.62.24.31.13.6.26.89.39l.19.09c.39.18.78.36,1.16.56.38.2.76.4,1.13.61.31.18.62.37.93.56l.31.19c.29.18.58.36.87.56,1.36.94,2.63,2.01,3.81,3.18l23,4.84.15.15,5.61,23.42s.03.12-.07.2c-.1.08-.17.05-.21.02l-19.84-9.5c.03.51.04,1,.04,1.47v.18c0,2.3,1.32,4.39,3.39,5.39l14.31,6.85c.71.34,1.45.5,2.2.5,1.34,0,2.67-.54,3.67-1.6,1.22-1.27,1.6-3.13,1.19-4.84Z"/>
  <path class="cls-1" d="m65.52,69.43c-.03-.27-.07-.54-.1-.81-.06-.47-.13-.94-.21-1.4-.06-.33-.14-.66-.21-.98-.09-.38-.18-.75-.29-1.13-.1-.37-.21-.73-.34-1.09-.1-.3-.21-.6-.33-.89-.15-.4-.31-.8-.48-1.19-.09-.19-.18-.38-.27-.57-.78-1.64-1.74-3.19-2.85-4.6-1.49-1.88-3.24-3.53-5.22-4.9-.3-.21-.61-.4-.92-.59-.28-.17-.55-.34-.83-.51-.31-.18-.63-.35-.95-.51-.32-.16-.64-.32-.97-.47-.3-.14-.59-.28-.9-.4-.6-.25-1.21-.48-1.84-.67-.2-.06-.41-.11-.61-.17-.49-.14-.99-.27-1.49-.38-.25-.06-.51-.1-.77-.15-.44-.08-.88-.16-1.33-.21-.29-.03-.57-.07-.86-.1-.73-.07-1.47-.11-2.22-.11-6.66,0-12.69,2.7-17.05,7.06-2.18,2.18-3.95,4.78-5.17,7.66-.31.72-.58,1.46-.81,2.22-.7,2.26-1.08,4.67-1.08,7.17,0,.72.03,1.43.1,2.13.03.35.12.93.17,1.28.06.43.11.86.19,1.28.09.47.22.93.34,1.39.07.27.13.54.21.81.16.54.35,1.07.55,1.59.06.17.12.34.18.5.24.59.5,1.16.78,1.72.04.09.08.18.13.27.31.61.65,1.2,1.01,1.77.02.04.04.07.06.11.38.6.79,1.19,1.22,1.76,0,0,0,.01.01.02.44.58.91,1.13,1.4,1.67,1.95,2.13,4.27,3.9,6.88,5.21.74.37,1.5.7,2.27,1,.2.08.41.15.62.23.47.17.96.32,1.44.46.41.11.81.22,1.23.32.25.06.51.11.76.16.62.12,1.25.22,1.89.29.16.02.32.03.48.04.72.06,1.44.11,2.18.11,13.32,0,24.11-10.79,24.11-24.11,0-.77-.04-1.53-.12-2.29Zm-9.36,6.25c-.96,3.85-5.2,11.14-14.33,11.14-4.91,0-8.52-2.13-10.99-4.68v.87c0,1.1-.9,2-2,2s-2-.9-2-2v-7.82s0-.06,0-.09c0-.07.01-.14.02-.22,0-.06.02-.12.04-.18.02-.06.04-.13.06-.19.02-.06.05-.12.07-.18.03-.06.06-.11.09-.17.03-.06.07-.11.11-.16.04-.05.08-.1.12-.15.04-.05.08-.09.13-.13.05-.04.1-.09.15-.13.05-.04.1-.08.16-.11.05-.03.11-.06.17-.09.06-.03.13-.06.19-.08.03-.01.05-.03.08-.04.03,0,.06-.01.09-.02.07-.02.14-.03.21-.04.07-.01.13-.02.2-.02.03,0,.07,0,.1,0h7.77c1.1,0,2,.9,2,2s-.9,2-2,2h-4.6c1.5,2.41,4.49,5.62,9.82,5.62,8.25,0,10.37-7.79,10.45-8.12.28-1.07,1.37-1.71,2.43-1.44,1.07.27,1.72,1.35,1.45,2.42Zm.06-7.44s0,.06,0,.09c0,.07-.01.14-.02.22,0,.06-.02.12-.04.18-.02.06-.04.13-.06.19-.02.06-.05.12-.07.18-.03.06-.06.11-.09.17-.03.06-.07.11-.11.16-.04.05-.08.1-.12.15-.04.05-.08.09-.13.13-.05.04-.1.09-.15.13-.05.04-.1.08-.16.11-.05.03-.11.06-.17.09-.06.03-.13.06-.19.08-.03.01-.05.03-.08.04-.02,0-.04,0-.06,0-.17.05-.34.08-.52.08,0,0-.01,0-.02,0,0,0,0,0,0,0h-7.76c-1.1,0-2-.9-2-2s.9-2,2-2h4.6c-1.5-2.41-4.49-5.62-9.82-5.62-8.25,0-10.37,7.79-10.45,8.12-.28,1.07-1.36,1.71-2.43,1.44-1.07-.27-1.72-1.35-1.45-2.42.96-3.85,5.2-11.14,14.33-11.14,4.91,0,8.52,2.13,10.99,4.68v-.87c0-1.1.9-2,2-2s2,.9,2,2v7.82Z"/>
</svg>