<?xml version="1.0" encoding="UTF-8"?>
<svg id="_图层_1" data-name="图层 1" xmlns="http://www.w3.org/2000/svg" viewBox="0 0 100 100">
  <defs>
    <style>
      .cls-1 {
        fill: #10b0ff;
      }
    </style>
  </defs>
  <path class="cls-1" d="m85.08,79.02h-5.26v-4h5.26c1.2,0,2.18-.98,2.18-2.18V12.74c0-1.2-.98-2.18-2.18-2.18H14.91c-1.2,0-2.18.98-2.18,2.18v60.1c0,1.2.98,2.18,2.18,2.18h6.21v4h-6.21c-3.41,0-6.18-2.77-6.18-6.18V12.74c0-3.41,2.77-6.18,6.18-6.18h70.17c3.41,0,6.18,2.77,6.18,6.18v60.1c0,3.41-2.77,6.18-6.18,6.18Z"/>
  <g>
    <path class="cls-1" d="m94.97,15.47v7.44c0,.1.03.2.03.3v55.64c0,4.1-3.15,7.48-7.02,7.55h-.13c-3.95,0-7.16-3.21-7.16-7.15v-4.66c0-5.12-4.17-9.29-9.29-9.29H28.59c-5.12,0-9.29,4.17-9.29,9.29v4.26c0,4.09-3.15,7.48-7.01,7.55h-.14c-3.94,0-7.15-3.21-7.15-7.15V23.21c0-.1.02-.2.03-.3v-7.44C2.07,16.79,0,19.76,0,23.21v56.04C0,85.77,5.14,91.08,11.59,91.38c.18.04.37.07.56.07h75.7c.19,0,.37-.03.55-.07,6.53-.3,11.6-5.94,11.6-12.52V23.21c0-3.45-2.07-6.42-5.03-7.74ZM21.79,86.44c1.58-2.13,2.51-4.78,2.51-7.59v-4.26c0-2.37,1.92-4.29,4.29-4.29h42.81c2.37,0,4.29,1.92,4.29,4.29v4.66c0,2.69.89,5.18,2.37,7.19H21.79Z"/>
    <path class="cls-1" d="m62.25,75.52h-24.5c-.83,0-1.5.67-1.5,1.5s.67,1.5,1.5,1.5h24.5c.83,0,1.5-.67,1.5-1.5s-.67-1.5-1.5-1.5Z"/>
    <rect class="cls-1" x="30.06" y="25.09" width="28.02" height="17.47" rx="4.39" ry="4.39"/>
    <path class="cls-1" d="m35.86,45.07v.71c0,1.5,1.21,2.71,2.71,2.71h22.6c1.5,0,2.71-1.21,2.71-2.71v-12.05c0-1.5-1.21-2.71-2.71-2.71h-.59v9.17c0,2.7-2.19,4.89-4.89,4.89h-19.83Z"/>
    <path class="cls-1" d="m41.91,50.98v.45c0,1.5,1.21,2.71,2.71,2.71h22.6c1.5,0,2.71-1.21,2.71-2.71v-12.05c0-1.5-1.21-2.71-2.71-2.71h-.83v10.84c0,1.92-1.56,3.48-3.48,3.48h-21Z"/>
  </g>
</svg>