<?xml version="1.0" encoding="UTF-8"?>
<svg id="_图层_1" data-name="图层 1" xmlns="http://www.w3.org/2000/svg" viewBox="0 0 100 100">
  <defs>
    <style>
      .cls-1 {
        fill: #10b0ff;
      }
    </style>
  </defs>
  <path class="cls-1" d="m85.25,86.42c1.18,0,2.35-.42,3.29-1.23,1.48-1.27,2.02-3.33,1.57-5.22l-5.56-23.21c-.45-1.89-1.97-3.37-3.88-3.77l-25.93-5.46,25.91-5.33c1.92-.39,3.45-1.88,3.9-3.78l5.53-23.12c.47-1.95-.1-4.08-1.65-5.35s-3.61-1.5-5.39-.65L12.61,43.04c-1.77.85-2.87,2.6-2.87,4.56s1.1,3.71,2.87,4.56l70.45,33.75c.71.34,1.45.5,2.2.5Zm0-72.76s.07.01.12.05c.1.08.08.15.07.2l-5.6,23.38-.15.15-29.83,6.14c-1.89.39-3.21,2.01-3.22,3.94,0,1.93,1.31,3.55,3.2,3.95l29.84,6.28.15.15,5.61,23.42s.03.12-.07.2c-.1.08-.17.05-.21.02L14.71,47.79s-.11-.05-.11-.18.07-.16.11-.18h0L85.16,13.68s.05-.03.09-.03Z"/>
</svg>