<?xml version="1.0" encoding="UTF-8"?>
<svg xmlns="http://www.w3.org/2000/svg" viewBox="0 0 100 100">
  <g fill="context-fill">
    <path d="m36.89,64.93c.17.51.28.92.32,1.22.04.3-.01.53-.17.68-.16.15-.44.24-.84.28-.4.04-.95.05-1.65.05s-1.3-.01-1.71-.03c-.41-.02-.72-.06-.93-.13-.21-.06-.36-.15-.45-.27-.09-.11-.16-.26-.21-.45l-1.87-5.58h-10.42l-1.76,5.43c-.06.2-.13.37-.23.5-.09.14-.24.24-.45.32-.21.08-.5.13-.88.16-.38.03-.88.04-1.49.04-.66,0-1.17-.02-1.54-.06-.37-.04-.63-.15-.77-.31-.14-.16-.19-.4-.15-.7.04-.3.15-.7.32-1.2l8.56-24.62c.09-.24.19-.44.3-.59.11-.15.3-.26.55-.34.25-.08.6-.13,1.04-.15.44-.02,1.03-.03,1.76-.03.84,0,1.52.01,2.02.03s.89.07,1.17.15c.28.08.48.2.6.35.12.16.23.37.31.64l8.58,24.6Zm-12.74-20.35h-.02l-3.92,11.8h7.87l-3.92-11.8Z"/>
    <path d="m61.29,64.67c0,.43-.02.79-.05,1.08-.04.29-.09.54-.16.73-.07.19-.16.33-.27.42-.11.09-.23.13-.38.13h-12.72c-.47,0-.87-.14-1.19-.42s-.48-.73-.48-1.36v-25.2c0-.14.05-.27.14-.39.09-.11.25-.21.46-.28.21-.07.5-.13.87-.17.36-.04.82-.06,1.36-.06s1.02.02,1.37.06c.36.04.64.1.86.17.21.07.37.16.46.28.09.11.14.24.14.39v22.33h8.73c.14,0,.27.04.38.12.11.08.2.21.27.39.07.18.12.42.16.71.04.29.05.65.05,1.08Z"/>
    <path d="m85.14,64.67c0,.43-.02.79-.05,1.08-.04.29-.09.54-.16.73-.07.19-.16.33-.27.42-.11.09-.23.13-.38.13h-12.72c-.47,0-.87-.14-1.19-.42s-.48-.73-.48-1.36v-25.2c0-.14.05-.27.14-.39.09-.11.25-.21.46-.28.21-.07.5-.13.87-.17.36-.04.82-.06,1.36-.06s1.02.02,1.37.06c.36.04.64.1.86.17.21.07.37.16.46.28.09.11.14.24.14.39v22.33h8.73c.14,0,.27.04.38.12.11.08.2.21.27.39.07.18.12.42.16.71.04.29.05.65.05,1.08Z"/>
    <path d="m86.41,78.3H13.18c-5.45,0-9.89-4.44-9.89-9.89v-29.22c0-5.45,4.44-9.89,9.89-9.89h73.22c5.45,0,9.89,4.44,9.89,9.89v29.22c0,5.45-4.44,9.89-9.89,9.89ZM13.18,33.3c-3.25,0-5.89,2.64-5.89,5.89v29.22c0,3.25,2.64,5.89,5.89,5.89h73.22c3.25,0,5.89-2.64,5.89-5.89v-29.22c0-3.25-2.64-5.89-5.89-5.89H13.18Z"/>
  </g>
</svg>
