<?xml version="1.0" encoding="UTF-8"?>
<svg id="_图层_1" data-name="图层 1" xmlns="http://www.w3.org/2000/svg" viewBox="0 0 80 80">
  <defs>
    <style>
      .cls-1 {
        fill: #fff;
      }
    </style>
  </defs>
  <path class="cls-1" d="m8.75,34.13V12.54c0-4.09,3.32-7.41,7.41-7.41h48.21c4.08,0,7.41,3.32,7.41,7.41v21.59H8.75Zm59.02-21.59c0-1.88-1.53-3.41-3.41-3.41H16.16c-1.88,0-3.41,1.53-3.41,3.41v17.59h55.02V12.54Z"/>
  <path class="cls-1" d="m8.75,68.37v-21.59h63.02v21.59c0,4.09-3.32,7.41-7.41,7.41H16.16c-4.08,0-7.41-3.32-7.41-7.41Zm4-17.59v17.59c0,1.88,1.53,3.41,3.41,3.41h48.21c1.88,0,3.41-1.53,3.41-3.41v-17.59H12.75Z"/>
  <g>
    <path class="cls-1" d="m75.75,38.45h-2.5c-1.1,0-2,.9-2,2s.9,2,2,2h2.5c1.1,0,2-.9,2-2s-.9-2-2-2Z"/>
    <path class="cls-1" d="m35.87,38.45h-5.5c-1.1,0-2,.9-2,2.01s.9,1.99,2,1.99h5.5c1.1,0,2-.89,2-1.99s-.9-2.01-2-2.01Z"/>
    <path class="cls-1" d="m21.58,38.45h-5.5c-1.1,0-2,.9-2,2.01s.9,1.99,2,1.99h5.5c1.1,0,2-.89,2-1.99s-.9-2.01-2-2.01Z"/>
    <path class="cls-1" d="m64.46,38.45h-5.5c-1.1,0-2,.9-2,2.01s.9,1.99,2,1.99h5.5c1.1,0,2-.89,2-1.99s-.9-2.01-2-2.01Z"/>
    <path class="cls-1" d="m50.17,38.45h-5.5c-1.11,0-2,.9-2,2.01s.89,1.99,2,1.99h5.5c1.1,0,2-.89,2-1.99s-.9-2.01-2-2.01Z"/>
    <path class="cls-1" d="m8.69,39.04c-.36-.36-.86-.59-1.41-.59-.01,0-.03,0-.04,0h-2.46c-1.1,0-2,.9-2,2s.9,2,2,2h2.5c.77,0,1.43-.44,1.77-1.08.14-.27.23-.58.23-.91,0,0,0,0,0,0s0,0,0,0c0-.55-.22-1.05-.59-1.41Z"/>
  </g>
</svg>