<?xml version="1.0" encoding="UTF-8"?>
<svg xmlns="http://www.w3.org/2000/svg" viewBox="0 0 100 100">
  <g fill="context-fill">
    <path d="m87.41,78.3H14.18c-5.45,0-9.89-4.44-9.89-9.89v-29.22c0-5.45,4.44-9.89,9.89-9.89h73.22c5.45,0,9.89,4.44,9.89,9.89v29.22c0,5.45-4.44,9.89-9.89,9.89ZM14.18,33.3c-3.25,0-5.89,2.64-5.89,5.89v29.22c0,3.25,2.64,5.89,5.89,5.89h73.22c3.25,0,5.89-2.64,5.89-5.89v-29.22c0-3.25-2.64-5.89-5.89-5.89H14.18Z"/>
    <path d="m50.8,47.93l.92,1.87c.74,1.5,2.18,2.55,3.84,2.79l2.07.3-1.5,1.46c-1.2,1.17-1.75,2.86-1.47,4.51l.35,2.06-1.85-.97c-.73-.38-1.55-.59-2.37-.59s-1.64.2-2.37.59l-1.85.97.35-2.06c.28-1.65-.26-3.34-1.47-4.51l-1.5-1.46,2.07-.3c1.66-.24,3.09-1.28,3.84-2.79l.92-1.87m0-7.66c-.39,0-.78.2-.98.61l-3.53,7.15c-.16.32-.47.55-.83.6l-7.89,1.15c-.9.13-1.26,1.24-.61,1.87l5.71,5.57c.26.25.38.61.32.97l-1.35,7.86c-.12.71.44,1.28,1.08,1.28.17,0,.34-.04.51-.13l7.06-3.71c.16-.08.33-.13.51-.13s.35.04.51.13l7.06,3.71c.17.09.34.13.51.13.64,0,1.2-.58,1.08-1.28l-1.35-7.86c-.06-.36.06-.72.32-.97l5.71-5.57c.65-.63.29-1.74-.61-1.87l-7.89-1.15c-.36-.05-.67-.28-.83-.6l-3.53-7.15c-.2-.41-.59-.61-.98-.61h0Z"/>
  </g>
</svg>
