<?xml version="1.0" encoding="UTF-8"?>
<svg xmlns="http://www.w3.org/2000/svg" viewBox="0 0 100 100">
  <path fill="context-fill" d="m64.82,5.62H25.04c-4.44,0-8.05,3.61-8.05,8.05v71.9c0,4.44,3.61,8.05,8.05,8.05h51.22c4.44,0,8.05-3.61,8.05-8.05V25.12l-19.49-19.49Zm1.17,6.83l11.49,11.49h-7.44c-2.23,0-4.05-1.82-4.05-4.05v-7.44Zm10.27,77.17H25.04c-2.23,0-4.05-1.82-4.05-4.05V13.67c0-2.23,1.82-4.05,4.05-4.05h36.95v10.27c0,4.44,3.61,8.05,8.05,8.05h10.27v57.63c0,2.23-1.82,4.05-4.05,4.05Z"/>
  <g fill="context-fill">
    <path d="m37.96,57.11c0,.09-.02.17-.05.23-.03.06-.11.11-.23.15s-.3.07-.54.09c-.24.02-.56.02-.96.02-.34,0-.61,0-.82-.02-.2-.02-.36-.05-.48-.09-.12-.04-.2-.1-.25-.17-.05-.07-.09-.15-.12-.25l-1.42-3.53c-.17-.4-.34-.75-.5-1.06-.16-.31-.34-.57-.54-.78-.2-.21-.43-.36-.69-.47-.26-.11-.56-.16-.9-.16h-1v6.02c0,.08-.03.15-.08.22-.05.07-.14.12-.26.16-.12.04-.29.07-.49.1-.2.02-.46.04-.78.04s-.57-.01-.78-.04c-.21-.02-.37-.06-.49-.1-.12-.04-.21-.09-.26-.16-.05-.06-.07-.14-.07-.22v-14.34c0-.36.09-.62.27-.77.18-.16.41-.24.68-.24h4.09c.42,0,.76,0,1.03.02.27.02.51.04.73.06.63.09,1.21.24,1.71.46.51.22.94.51,1.29.86.35.35.62.77.81,1.26.19.48.28,1.04.28,1.67,0,.53-.07,1.01-.2,1.45-.13.44-.33.82-.59,1.17-.26.34-.58.64-.96.89-.38.25-.82.46-1.31.61.24.11.46.25.67.42.21.16.4.36.59.59.18.23.36.5.52.79.16.3.32.63.48,1.01l1.33,3.11c.12.31.2.54.24.68.04.14.06.25.06.34Zm-4.14-10.72c0-.52-.12-.96-.35-1.32-.24-.36-.62-.61-1.16-.76-.16-.04-.35-.07-.56-.1-.21-.02-.49-.04-.86-.04h-1.44v4.48h1.64c.46,0,.85-.05,1.2-.17.34-.11.63-.26.85-.46.23-.2.4-.44.51-.71.11-.28.17-.59.17-.93Z"/>
    <path d="m53.71,56.33c.1.29.16.52.18.7s0,.3-.1.38c-.09.09-.25.14-.48.16-.23.02-.54.03-.94.03s-.74,0-.97-.02c-.23-.01-.41-.04-.53-.07-.12-.04-.21-.09-.26-.15-.05-.06-.09-.15-.12-.26l-1.06-3.17h-5.93l-1,3.09c-.03.11-.08.21-.13.29-.05.08-.14.14-.26.18-.12.04-.29.08-.5.09-.22.02-.5.02-.85.02-.37,0-.67-.01-.88-.04-.21-.02-.36-.08-.44-.18-.08-.09-.11-.23-.09-.4s.09-.4.18-.68l4.87-14.01c.05-.14.11-.25.17-.34.06-.08.17-.15.31-.2.14-.04.34-.07.59-.08.25-.01.59-.02,1-.02.48,0,.86,0,1.15.02.28.01.51.04.67.08.16.04.27.11.34.2.07.09.13.21.18.37l4.88,14Zm-7.25-11.58h-.01l-2.23,6.71h4.48l-2.23-6.71Z"/>
    <path d="m72.02,56.7c-.05.2-.12.35-.2.47-.08.12-.21.21-.38.27-.17.06-.39.1-.66.12-.27.02-.61.03-1.03.03-.46,0-.84-.01-1.12-.03-.28-.02-.5-.06-.67-.12-.16-.06-.28-.15-.35-.27-.07-.12-.13-.27-.17-.47l-2.53-10.01h-.02l-2.39,10.01c-.04.19-.1.34-.17.46-.07.12-.19.21-.35.27-.16.07-.37.11-.65.13-.27.02-.63.03-1.08.03-.47,0-.85-.01-1.13-.03-.28-.02-.5-.06-.67-.12-.16-.06-.28-.15-.35-.27-.07-.12-.13-.27-.18-.47l-3.59-13.78c-.07-.29-.11-.52-.12-.69,0-.17.04-.29.14-.38.1-.09.27-.14.5-.17.23-.02.56-.03.97-.03.38,0,.69,0,.91.02.22.01.39.04.51.08.11.04.19.11.23.2.04.09.07.21.1.36l2.77,12.1h.01l2.88-12.01c.03-.15.08-.28.13-.38.05-.1.14-.17.27-.23.13-.05.3-.09.52-.11.22-.02.51-.03.88-.03.39,0,.7,0,.93.02.23.02.41.05.54.1.13.05.22.13.27.23.06.1.1.23.13.39l2.98,12.01h.02l2.77-12.06c.02-.13.06-.24.1-.34.04-.09.12-.17.23-.22.11-.05.28-.09.49-.11.21-.02.51-.03.89-.03.36,0,.64.01.84.03.2.02.34.08.43.17.09.09.13.22.12.4-.01.18-.05.41-.13.71l-3.63,13.75Z"/>
  </g>
</svg>
