<?xml version="1.0" encoding="UTF-8"?>
<svg id="_图层_1" data-name="图层 1" xmlns="http://www.w3.org/2000/svg" viewBox="0 0 68 68">
  <defs>
    <style>
      .cls-1 {
        fill: #fff;
      }
    </style>
  </defs>
  <path class="cls-1" d="m65.91,41.74c-.02-.21-.05-.41-.08-.62-.05-.36-.1-.72-.16-1.08-.05-.25-.11-.5-.16-.75-.07-.29-.14-.58-.22-.86-.08-.28-.16-.56-.26-.83-.08-.23-.16-.46-.25-.69-.12-.31-.24-.61-.37-.91-.07-.15-.14-.29-.21-.43-.6-1.26-1.33-2.45-2.19-3.53-1.14-1.44-2.49-2.71-4-3.76-.23-.16-.47-.3-.71-.45-.21-.13-.42-.26-.64-.39-.24-.14-.48-.27-.73-.39-.24-.12-.49-.24-.74-.36-.23-.1-.45-.21-.69-.31-.46-.19-.93-.36-1.41-.52-.15-.05-.31-.08-.47-.13-.38-.11-.76-.21-1.15-.29-.19-.04-.39-.08-.59-.12-.38-.07-.76-.13-1.14-.17-.18-.02-.36-.05-.54-.06-.56-.05-1.13-.09-1.7-.09-5.11,0-9.73,2.07-13.08,5.42-1.67,1.67-3.03,3.67-3.96,5.88-.23.55-.44,1.12-.62,1.7-.54,1.74-.83,3.59-.83,5.5,0,.62.03,1.23.09,1.83.03.27.08.54.12.81.05.32.08.64.15.95.07.36.17.71.26,1.07.05.21.1.42.16.62.12.42.27.82.42,1.22.05.13.09.26.14.38.18.45.38.89.6,1.32.03.07.06.14.1.21.24.47.5.92.78,1.36.02.03.03.05.05.08.29.46.61.91.94,1.35,0,0,0,0,.01.01.34.44.7.87,1.07,1.28,1.5,1.63,3.28,2.99,5.28,4,.57.29,1.15.54,1.74.77.16.06.31.12.47.17.36.13.73.25,1.11.35.31.09.62.17.94.24.19.04.39.09.58.12.48.09.96.17,1.45.22.12.01.24.02.36.03.55.05,1.11.08,1.67.08,10.22,0,18.5-8.28,18.5-18.5,0-.59-.03-1.18-.09-1.76Zm-8.01,3.38l-14.78,7.44c-.29.15-.6.21-.9.21-.73,0-1.44-.4-1.79-1.1-.5-.99-.1-2.19.89-2.69l11.31-5.69-11.34-5.95c-.98-.51-1.35-1.72-.84-2.7.51-.98,1.72-1.35,2.7-.84l14.78,7.75c.66.35,1.08,1.04,1.07,1.79,0,.75-.43,1.43-1.1,1.77Z"/>
  <path class="cls-1" d="m31.29,56H11.82c-3.76,0-6.82-3.06-6.82-6.82v-27.18h20.01c1.29,0,2.54-.45,3.53-1.28l4.47-3.72h18.18c3.76,0,6.82,3.06,6.82,6.82v2.11c1.46.87,2.81,1.9,4,3.1v-5.2c0-5.97-4.85-10.82-10.82-10.82h-19.18l-4.38-4.38c-1.04-1.04-2.45-1.62-3.92-1.62h-11.88C5.84,7,1,11.84,1,17.82v31.36c0,5.97,4.85,10.82,10.82,10.82h23.57c-1.55-1.14-2.92-2.48-4.1-4ZM5,17.82c0-3.77,3.05-6.82,6.82-6.82h9.59c1.39,0,2.73.52,3.75,1.47l3.24,2.98-1.93,1.45c-.95.72-2.11,1.1-3.31,1.1H5v-.18Z"/>
</svg>