<?xml version="1.0" encoding="UTF-8"?>
<svg id="_图层_1" data-name="图层 1" xmlns="http://www.w3.org/2000/svg" viewBox="0 0 65 45.5">
  <defs>
    <style>
      .cls-1 {
        fill: #10b0ff;
      }
    </style>
  </defs>
  <path class="cls-1" d="m57.91,17.52H7.55c-3.18,0-5.76,2.17-5.76,4.84v15.81c0,2.67,2.59,4.84,5.76,4.84h50.36c3.18,0,5.76-2.17,5.76-4.84v-15.81c0-2.67-2.59-4.84-5.76-4.84Zm-18.2,14.48h-13.63c-1.39,0-2.51-1.12-2.51-2.5s1.12-2.5,2.51-2.5h13.63c1.39,0,2.51,1.12,2.51,2.5s-1.12,2.5-2.51,2.5Z"/>
  <path class="cls-1" d="m8.18,13.56h49.64c2.31,0,3.85-1.19,2.89-2.25l-6.71-7.38c-.52-.57-1.65-.93-2.89-.93H14.89c-1.25,0-2.38.36-2.89.93l-6.71,7.38c-.96,1.05.58,2.25,2.89,2.25Z"/>
</svg>