<?xml version="1.0" encoding="UTF-8"?>
<svg xmlns="http://www.w3.org/2000/svg" viewBox="0 0 100 100">
  <g fill="context-fill">
    <path d="m65.21,43.23v13.83c0,1.17-.95,2.12-2.12,2.12h-22.87c-1.17,0-2.12-.95-2.12-2.12v-.66h22.21c1.17,0,2.12-.95,2.12-2.12v-13.17h.66c1.17,0,2.12.95,2.12,2.12Z"/>
    <path d="m69.66,47.68v13.83c0,1.17-.95,2.12-2.12,2.12h-22.87c-1.17,0-2.12-.95-2.12-2.12v-.66h22.21c1.17,0,2.12-.95,2.12-2.12v-13.17h.66c1.17,0,2.12.95,2.12,2.12Z"/>
    <rect x="33.64" y="36.65" width="27.12" height="18.08" rx="2.12" ry="2.12"/>
    <path d="m65.82,6.14H26.04c-4.44,0-8.05,3.61-8.05,8.05v71.9c0,4.44,3.61,8.05,8.05,8.05h51.22c4.44,0,8.05-3.61,8.05-8.05V25.63l-19.49-19.49Zm1.17,6.83l11.49,11.49h-7.44c-2.23,0-4.05-1.82-4.05-4.05v-7.44Zm10.27,77.17H26.04c-2.23,0-4.05-1.82-4.05-4.05V14.19c0-2.23,1.82-4.05,4.05-4.05h36.95v10.27c0,4.44,3.61,8.05,8.05,8.05h10.27v57.63c0,2.23-1.82,4.05-4.05,4.05Z"/>
  </g>
</svg>
