<?xml version="1.0" encoding="UTF-8"?>
<svg xmlns="http://www.w3.org/2000/svg" viewBox="0 0 100 100">
  <path fill="context-fill" d="m66.82,6.14H27.04c-4.44,0-8.05,3.61-8.05,8.05v71.9c0,4.44,3.61,8.05,8.05,8.05h51.22c4.44,0,8.05-3.61,8.05-8.05V25.63l-19.49-19.49Zm1.17,6.83l11.49,11.49h-7.44c-2.23,0-4.05-1.82-4.05-4.05v-7.44Zm10.27,77.17H27.04c-2.23,0-4.05-1.82-4.05-4.05V14.19c0-2.23,1.82-4.05,4.05-4.05h36.95v10.27c0,4.44,3.61,8.05,8.05,8.05h10.27v57.63c0,2.23-1.82,4.05-4.05,4.05Z"/>
  <g stroke="context-stroke" stroke-linecap="round" stroke-linejoin="round" stroke-width="4" fill="none">
    <line x1="64.14" y1="38.64" x2="41.15" y2="61.64"/>
    <line x1="41.15" y1="38.64" x2="64.14" y2="61.64"/>
  </g>
</svg>
