<?xml version="1.0" encoding="UTF-8"?>
<svg id="_图层_1" data-name="图层 1" xmlns="http://www.w3.org/2000/svg" viewBox="0 0 80 80">
  <defs>
    <style>
      .cls-1 {
        fill: #fff;
      }
    </style>
  </defs>
  <path class="cls-1" d="m33.94,71.96H12.35c-4.09,0-7.41-3.32-7.41-7.41V16.35c0-4.08,3.32-7.41,7.41-7.41h21.59v63.02ZM12.35,12.94c-1.88,0-3.41,1.53-3.41,3.41v48.21c0,1.88,1.53,3.41,3.41,3.41h17.59V12.94H12.35Z"/>
  <path class="cls-1" d="m68.18,71.96h-21.59V8.94h21.59c4.09,0,7.41,3.32,7.41,7.41v48.21c0,4.08-3.32,7.41-7.41,7.41Zm-17.59-4h17.59c1.88,0,3.41-1.53,3.41-3.41V16.35c0-1.88-1.53-3.41-3.41-3.41h-17.59v55.02Z"/>
  <g>
    <path class="cls-1" d="m40.26,9.46c-1.1,0-2-.9-2-2v-2.5c0-1.1.9-2,2-2s2,.9,2,2v2.5c0,1.1-.9,2-2,2Z"/>
    <path class="cls-1" d="m40.27,75.44c-1.11,0-2.01-.9-2.01-2s.9-2,2.01-2,1.99.9,1.99,2-.89,2-1.99,2Zm0-8.8c-1.11,0-2.01-.9-2.01-2v-5.5c0-1.1.9-2,2.01-2s1.99.9,1.99,2v5.5c0,1.1-.89,2-1.99,2Zm0-14.29c-1.11,0-2.01-.9-2.01-2v-5.5c0-1.1.9-2,2.01-2s1.99.9,1.99,2v5.5c0,1.1-.89,2-1.99,2Zm0-14.3c-1.11,0-2.01-.89-2.01-2v-5.5c0-1.1.9-2,2.01-2s1.99.9,1.99,2v5.5c0,1.11-.89,2-1.99,2Zm0-14.29c-1.11,0-2.01-.9-2.01-2v-5.5c0-1.1.9-2,2.01-2s1.99.9,1.99,2v5.5c0,1.1-.89,2-1.99,2Z"/>
    <path class="cls-1" d="m40.26,77.94c-1.1,0-2-.9-2-2v-2.5c0-1.1.9-2,2-2s2,.9,2,2v2.5c0,1.1-.9,2-2,2Z"/>
  </g>
</svg>