<?xml version="1.0" encoding="UTF-8"?>
<svg id="_图层_1" data-name="图层 1" xmlns="http://www.w3.org/2000/svg" viewBox="0 0 76.47 76.47">
  <defs>
    <style>
      .cls-1 {
        fill: #f2f2f2;
      }
    </style>
  </defs>
  <path class="cls-1" d="m64.01,23.92v27.16c0,2.31-1.87,4.17-4.17,4.17H14.92c-2.31,0-4.17-1.87-4.17-4.17v-1.29h43.63c2.31,0,4.17-1.87,4.17-4.17v-25.88h1.29c2.31,0,4.17,1.87,4.17,4.17Z"/>
  <path class="cls-1" d="m72.75,32.66v27.16c0,2.31-1.87,4.17-4.17,4.17H23.66c-2.31,0-4.17-1.87-4.17-4.17v-1.29h43.63c2.31,0,4.17-1.87,4.17-4.17v-25.88h1.29c2.31,0,4.17,1.87,4.17,4.17Z"/>
  <rect class="cls-1" x="2" y="11" width="53.27" height="35.51" rx="4.17" ry="4.17"/>
</svg>