<?xml version="1.0" encoding="UTF-8"?>
<svg xmlns="http://www.w3.org/2000/svg" viewBox="0 0 100 100">
  <g fill="context-fill">
    <path d="m87.41,78.3H14.18c-5.45,0-9.89-4.44-9.89-9.89v-29.22c0-5.45,4.44-9.89,9.89-9.89h73.22c5.45,0,9.89,4.44,9.89,9.89v29.22c0,5.45-4.44,9.89-9.89,9.89ZM14.18,33.3c-3.25,0-5.89,2.64-5.89,5.89v29.22c0,3.25,2.64,5.89,5.89,5.89h73.22c3.25,0,5.89-2.64,5.89-5.89v-29.22c0-3.25-2.64-5.89-5.89-5.89H14.18Z"/>
    <path d="m51.78,40.88l3.53,7.15c.16.32.47.55.83.6l7.89,1.15c.9.13,1.26,1.24.61,1.87l-5.71,5.57c-.26.25-.38.61-.32.97l1.35,7.86c.15.9-.79,1.58-1.59,1.16l-7.06-3.71c-.32-.17-.7-.17-1.02,0l-7.06,3.71c-.8.42-1.74-.26-1.59-1.16l1.35-7.86c.06-.36-.06-.72-.32-.97l-5.71-5.57c-.65-.63-.29-1.74.61-1.87l7.89-1.15c.36-.05.67-.28.83-.6l3.53-7.15c.4-.81,1.56-.81,1.97,0Z"/>
  </g>
</svg>
