<?xml version="1.0" encoding="UTF-8"?>
<svg xmlns="http://www.w3.org/2000/svg" viewBox="0 0 100 100">
  <path fill="context-fill" d="m64.82,5.62H25.04c-4.44,0-8.05,3.61-8.05,8.05v71.9c0,4.44,3.61,8.05,8.05,8.05h51.22c4.44,0,8.05-3.61,8.05-8.05V25.12l-19.49-19.49Zm1.17,6.83l11.49,11.49h-7.44c-2.23,0-4.05-1.82-4.05-4.05v-7.44Zm10.27,77.17H25.04c-2.23,0-4.05-1.82-4.05-4.05V13.67c0-2.23,1.82-4.05,4.05-4.05h36.95v10.27c0,4.44,3.61,8.05,8.05,8.05h10.27v57.63c0,2.23-1.82,4.05-4.05,4.05Z"/>
  <g fill="context-fill">
    <path d="m45.91,46.52c0,.89-.14,1.67-.42,2.36-.28.68-.68,1.26-1.21,1.73-.53.47-1.18.82-1.95,1.07-.77.24-1.67.37-2.72.37h-1.32v5.04c0,.08-.03.15-.08.22-.05.07-.14.12-.26.16-.12.04-.29.07-.49.1-.2.02-.46.04-.78.04s-.57-.01-.78-.04c-.21-.02-.37-.06-.49-.1-.12-.04-.21-.09-.26-.16-.05-.06-.07-.14-.07-.22v-14.21c0-.38.1-.67.3-.86.2-.19.46-.29.79-.29h3.72c.37,0,.73.01,1.07.04.34.03.74.09,1.21.18.47.09.95.27,1.43.52.48.25.9.57,1.24.96.34.39.6.84.78,1.35.18.52.27,1.1.27,1.74Zm-3.36.23c0-.55-.1-1.01-.29-1.37-.2-.36-.44-.62-.72-.79-.29-.17-.58-.28-.9-.32-.31-.04-.64-.07-.97-.07h-1.37v5.36h1.44c.51,0,.94-.07,1.29-.21.35-.14.63-.33.85-.58.22-.25.39-.55.5-.89.11-.35.17-.72.17-1.13Z"/>
    <path d="m52.07,57.08c0,.08-.03.15-.08.22-.05.07-.14.12-.26.16-.12.04-.29.07-.49.1-.2.02-.46.04-.78.04s-.57-.01-.77-.04c-.21-.02-.37-.06-.49-.1-.12-.04-.21-.09-.26-.16-.05-.06-.08-.14-.08-.22v-14.92c0-.08.03-.15.08-.22.05-.06.14-.12.27-.16.13-.04.29-.07.49-.1.2-.02.46-.04.77-.04s.58.01.78.04c.2.02.37.06.49.1.12.04.21.09.26.16.05.07.08.14.08.22v14.92Z"/>
    <path d="m66.89,55.13c0,.2,0,.38-.02.52-.01.14-.03.26-.05.37-.02.1-.06.19-.1.26-.04.07-.11.16-.2.25-.09.09-.26.21-.52.36-.26.15-.57.29-.94.42-.37.13-.79.25-1.27.34-.48.09-.99.13-1.54.13-1.08,0-2.06-.17-2.93-.5-.87-.33-1.61-.83-2.22-1.5-.61-.66-1.08-1.49-1.4-2.48-.33-.99-.49-2.15-.49-3.47s.18-2.53.54-3.58c.36-1.04.86-1.92,1.5-2.62.64-.71,1.41-1.25,2.31-1.61.9-.37,1.89-.55,2.97-.55.44,0,.86.04,1.27.11.41.07.78.17,1.13.29.35.12.66.25.93.41.28.15.47.29.58.4s.18.2.23.27c.04.07.07.17.1.28.02.11.04.25.05.4.01.15.02.35.02.57,0,.24,0,.45-.02.62-.02.17-.04.31-.09.42-.04.11-.09.18-.15.23-.06.05-.12.07-.2.07-.12,0-.28-.07-.46-.21-.19-.14-.43-.3-.73-.48-.3-.17-.65-.33-1.06-.48-.41-.14-.9-.21-1.47-.21-.63,0-1.19.13-1.68.38-.49.26-.91.62-1.26,1.1-.35.48-.61,1.05-.79,1.73-.18.68-.27,1.44-.27,2.28,0,.93.1,1.73.29,2.41.19.68.46,1.24.82,1.68.35.44.78.77,1.28.98.5.22,1.06.32,1.69.32.57,0,1.06-.07,1.48-.2.42-.13.77-.28,1.07-.45.3-.16.54-.31.73-.44.19-.13.34-.2.45-.2.08,0,.15.02.2.05.05.03.09.1.12.2.03.1.06.23.07.41.02.18.02.41.02.7Z"/>
  </g>
</svg>
