<?xml version="1.0" encoding="UTF-8"?>
<svg id="_图层_1" data-name="图层 1" xmlns="http://www.w3.org/2000/svg" viewBox="0 0 65 45.5">
  <defs>
    <style>
      .cls-1 {
        fill: #10b0ff;
      }
    </style>
  </defs>
  <path class="cls-1" d="m61.25,18.42l-5.33-5.86h1.89c2.31,0,3.85-1.19,2.89-2.25l-6.71-7.38c-.52-.57-1.65-.93-2.89-.93H14.89c-1.25,0-2.38.36-2.89.93l-6.71,7.38c-.96,1.05.58,2.25,2.89,2.25h1.89l-4.91,5.4c-1.99.76-3.38,2.45-3.38,4.4l1,15.81c0,2.67,2.59,4.84,5.76,4.84h48.36c3.18,0,5.76-2.17,5.76-4.84l1-15.81c0-1.62-.96-3.06-2.42-3.94Zm-8.05-5.86s.05.03.06.05l4.46,4.91H8.27l4.47-4.91s.05-.03.06-.05h40.4Zm-13.65,23.44h-13.63c-1.39,0-2.51-1.12-2.51-2.5s1.12-2.5,2.51-2.5h13.63c1.39,0,2.51,1.12,2.51,2.5s-1.12,2.5-2.51,2.5Z"/>
</svg>