<?xml version="1.0" encoding="UTF-8"?>
<svg id="_图层_1" data-name="图层 1" xmlns="http://www.w3.org/2000/svg" viewBox="0 0 100 100">
  <defs>
    <style>
      .cls-1 {
        fill: #fff;
      }

      .cls-2 {
        fill: #10b0ff;
      }
    </style>
  </defs>
  <g>
    <line class="cls-1" x1="98.48" y1="49.73" x2="3.2" y2="49.73"/>
    <g>
      <path class="cls-2" d="m98.47,51.73h-2.5c-1.1,0-2-.9-2-2s.9-2,2-2h2.5c1.1,0,2,.9,2,2s-.9,2-2,2Z"/>
      <path class="cls-2" d="m87.58,51.73h-5.25c-1.1,0-2-.9-2-2s.9-2,2-2h5.25c1.1,0,2,.9,2,2s-.9,2-2,2Zm-13.65,0h-5.25c-1.1,0-2-.9-2-2s.9-2,2-2h5.25c1.1,0,2,.9,2,2s-.9,2-2,2Zm-13.65,0h-5.25c-1.1,0-2-.9-2-2s.9-2,2-2h5.25c1.11,0,2,.9,2,2s-.89,2-2,2Zm-13.64,0h-5.25c-1.1,0-2-.9-2-2s.9-2,2-2h5.25c1.1,0,2,.9,2,2s-.9,2-2,2Zm-13.65,0h-5.25c-1.1,0-2-.9-2-2s.9-2,2-2h5.25c1.1,0,2,.9,2,2s-.9,2-2,2Zm-13.65,0h-5.24c-1.11,0-2-.9-2-2s.89-2,2-2h5.24c1.11,0,2,.9,2,2s-.89,2-2,2Zm-13.64,0c-1.1,0-2-.9-2-2s.9-2,2-2,2,.9,2,2-.9,2-2,2Z"/>
      <path class="cls-2" d="m5.7,51.73h-2.5c-1.1,0-2-.9-2-2s.9-2,2-2h2.5c1.1,0,2,.9,2,2s-.9,2-2,2Z"/>
    </g>
  </g>
  <path class="cls-2" d="m87.11,42.84H14.56c-2.02,0-3.65-1.51-3.65-3.36V9.03c0-2.45,2.75-4.07,5.17-3.06l72.55,30.45c3.57,1.5,2.41,6.42-1.52,6.42Z"/>
  <path class="cls-2" d="m87.11,56.61H14.56c-2.02,0-3.65,1.51-3.65,3.36v30.45c0,2.45,2.75,4.07,5.17,3.06l72.55-30.45c3.57-1.5,2.41-6.42-1.52-6.42Z"/>
</svg>