<?xml version="1.0" encoding="UTF-8"?>
<svg id="_图层_1" data-name="图层 1" xmlns="http://www.w3.org/2000/svg" viewBox="0 0 100 100">
  <defs>
    <style>
      .cls-1 {
        fill: #10b0ff;
      }
    </style>
  </defs>
  <g>
    <path class="cls-1" d="m32.4,42.59c0,.94-.17,1.76-.52,2.47s-.82,1.3-1.42,1.77-1.3.83-2.1,1.07-1.66.36-2.57.36c-.62,0-1.19-.05-1.72-.15s-1-.22-1.4-.37-.74-.29-1.01-.45c-.27-.16-.47-.29-.59-.41s-.21-.29-.26-.52-.08-.55-.08-.97c0-.29,0-.52.03-.72s.05-.35.09-.47c.04-.12.1-.2.17-.26.07-.05.15-.08.24-.08.13,0,.31.08.54.23.24.15.54.32.9.5s.81.35,1.32.5c.51.15,1.1.23,1.77.23.44,0,.84-.05,1.19-.16s.65-.26.89-.45.43-.43.56-.72.19-.6.19-.95c0-.4-.11-.75-.33-1.04-.22-.29-.51-.55-.86-.77-.35-.22-.76-.44-1.21-.63-.45-.2-.92-.41-1.39-.63s-.94-.47-1.39-.75c-.45-.28-.85-.62-1.21-1.01-.36-.39-.64-.85-.86-1.39s-.33-1.17-.33-1.92c0-.86.16-1.61.48-2.26.32-.65.75-1.19,1.28-1.61.54-.43,1.17-.75,1.9-.96.73-.21,1.51-.32,2.33-.32.42,0,.85.03,1.27.1s.82.15,1.19.26.69.23.98.37.47.25.57.35.15.17.19.23.06.15.08.25c.02.11.04.24.05.4s.01.36.01.6c0,.27,0,.49-.02.68-.02.18-.04.34-.07.46s-.08.21-.14.26-.14.08-.24.08-.26-.06-.48-.19-.49-.27-.81-.42c-.32-.15-.69-.29-1.12-.41-.42-.13-.89-.19-1.39-.19-.4,0-.74.05-1.04.14-.29.1-.54.23-.74.4s-.34.37-.44.61c-.1.24-.14.49-.14.76,0,.4.11.74.33,1.03.21.29.5.55.87.77s.78.44,1.24.63.93.41,1.41.63.95.47,1.41.75.87.62,1.23,1.01c.36.39.65.85.87,1.38.22.53.33,1.15.33,1.87Z"/>
    <path class="cls-1" d="m50.39,38.81c0,1.48-.18,2.81-.55,3.98s-.92,2.16-1.64,2.98c-.73.81-1.63,1.44-2.7,1.86-1.07.43-2.31.64-3.72.64s-2.6-.18-3.64-.54c-1.04-.36-1.9-.92-2.59-1.66s-1.21-1.69-1.55-2.84c-.35-1.15-.52-2.51-.52-4.09,0-1.44.18-2.74.55-3.9.37-1.15.92-2.14,1.64-2.95s1.63-1.43,2.7-1.86,2.32-.65,3.73-.65,2.55.18,3.58.54c1.04.36,1.9.91,2.6,1.66s1.22,1.69,1.57,2.82c.35,1.14.53,2.48.53,4.02Zm-3.81.19c0-.94-.07-1.79-.22-2.56-.15-.77-.4-1.42-.75-1.97s-.83-.97-1.41-1.27-1.33-.45-2.21-.45-1.64.17-2.24.5-1.08.78-1.45,1.35-.63,1.22-.78,1.97c-.15.75-.23,1.54-.23,2.38,0,.98.07,1.85.22,2.63.15.78.4,1.44.75,2s.82.97,1.41,1.26c.59.29,1.33.44,2.22.44s1.64-.17,2.24-.5,1.08-.78,1.45-1.35.63-1.24.78-1.99c.15-.76.23-1.57.23-2.42Z"/>
    <path class="cls-1" d="m62.41,46.43c0,.28-.01.51-.03.7-.02.19-.06.35-.1.47-.05.13-.1.21-.17.27-.07.06-.15.08-.24.08h-8.19c-.3,0-.56-.09-.77-.27-.21-.18-.31-.47-.31-.88v-16.22c0-.09.03-.17.09-.25.06-.07.16-.13.3-.18s.32-.08.56-.11c.23-.03.53-.04.88-.04s.65.01.88.04.41.06.55.11.24.11.3.18.09.16.09.25v14.37h5.62c.09,0,.17.03.24.08.07.05.13.13.17.25.05.12.08.27.1.46.02.19.03.42.03.7Z"/>
    <path class="cls-1" d="m79.27,38.81c0,1.48-.18,2.81-.55,3.98s-.92,2.16-1.64,2.98c-.73.81-1.63,1.44-2.7,1.86-1.07.43-2.31.64-3.72.64s-2.6-.18-3.64-.54c-1.04-.36-1.9-.92-2.59-1.66s-1.21-1.69-1.55-2.84c-.35-1.15-.52-2.51-.52-4.09,0-1.44.18-2.74.55-3.9.37-1.15.92-2.14,1.64-2.95s1.63-1.43,2.7-1.86,2.32-.65,3.73-.65,2.55.18,3.58.54c1.04.36,1.9.91,2.6,1.66s1.22,1.69,1.57,2.82c.35,1.14.53,2.48.53,4.02Zm-3.81.19c0-.94-.07-1.79-.22-2.56-.15-.77-.4-1.42-.75-1.97s-.83-.97-1.41-1.27-1.33-.45-2.21-.45-1.64.17-2.24.5-1.08.78-1.45,1.35-.63,1.22-.78,1.97c-.15.75-.23,1.54-.23,2.38,0,.98.07,1.85.22,2.63.15.78.4,1.44.75,2s.82.97,1.41,1.26c.59.29,1.33.44,2.22.44s1.64-.17,2.24-.5,1.08-.78,1.45-1.35.63-1.24.78-1.99c.15-.76.23-1.57.23-2.42Z"/>
    <path class="cls-1" d="m25.45,69.43c0,.09-.03.17-.09.25s-.16.13-.3.18-.32.08-.55.11-.52.04-.88.04-.64-.01-.88-.04c-.24-.03-.42-.06-.56-.11s-.24-.11-.3-.18c-.06-.07-.09-.16-.09-.25v-16.87c0-.09.03-.17.09-.25.06-.07.16-.13.3-.18.14-.05.33-.08.56-.11s.52-.04.87-.04.65.01.88.04.41.06.55.11.24.11.3.18.09.16.09.25v16.87Z"/>
    <path class="cls-1" d="m49.31,69.43c0,.09-.03.17-.08.25-.05.07-.14.13-.28.18-.13.05-.31.08-.53.11s-.5.04-.84.04-.61-.01-.83-.04-.4-.06-.52-.11-.22-.11-.28-.18-.08-.16-.08-.25v-14.54h-.03l-5.18,14.52c-.04.12-.1.22-.18.3-.08.08-.2.14-.34.19-.14.05-.33.08-.55.09-.22.02-.49.02-.8.02s-.58-.01-.8-.03c-.22-.02-.4-.06-.55-.11s-.25-.11-.34-.19-.14-.16-.17-.26l-5-14.52h-.03v14.54c0,.09-.03.17-.08.25s-.14.13-.28.18-.32.08-.53.11c-.22.03-.5.04-.84.04s-.61-.01-.83-.04-.4-.06-.53-.11-.23-.11-.28-.18-.08-.16-.08-.25v-15.92c0-.47.12-.83.37-1.08s.58-.37.99-.37h2.37c.42,0,.79.03,1.09.1.3.07.57.18.79.34.22.16.4.37.55.63.15.26.28.59.39.97l3.86,10.64h.06l4-10.61c.12-.39.25-.71.39-.98s.31-.48.5-.65.41-.28.67-.35c.26-.07.56-.1.9-.1h2.44c.25,0,.46.03.64.1.18.06.33.16.44.28.11.12.2.28.26.45.06.18.09.38.09.62v15.92Z"/>
    <path class="cls-1" d="m66.69,54.84c0,.27-.01.5-.04.69s-.06.35-.1.46c-.04.12-.09.2-.15.24s-.13.07-.21.07c-.12,0-.31-.08-.58-.25s-.62-.35-1.06-.54-.97-.37-1.58-.54c-.61-.17-1.32-.25-2.13-.25-.87,0-1.65.15-2.35.45s-1.3.72-1.79,1.27-.88,1.21-1.15,1.97c-.27.77-.4,1.62-.4,2.55,0,1.02.13,1.92.41,2.7.27.78.65,1.43,1.14,1.95s1.07.92,1.76,1.19,1.44.4,2.27.4c.4,0,.81-.05,1.2-.14s.76-.23,1.1-.41v-4.14h-3.38c-.17,0-.29-.1-.39-.31-.09-.21-.14-.56-.14-1.06,0-.26.01-.47.04-.65.02-.17.06-.31.1-.42.05-.1.1-.18.17-.23s.14-.08.22-.08h6.03c.15,0,.28.03.39.08s.22.13.3.23.15.22.2.37c.05.14.07.31.07.49v7.11c0,.28-.05.52-.14.73-.1.21-.3.37-.6.49s-.67.24-1.11.37-.9.24-1.37.33-.95.16-1.44.21c-.48.05-.97.07-1.46.07-1.43,0-2.7-.21-3.83-.61-1.13-.41-2.08-1-2.86-1.78-.78-.78-1.38-1.72-1.79-2.84-.41-1.12-.62-2.38-.62-3.8s.22-2.78.66-3.94,1.07-2.15,1.88-2.97c.81-.81,1.79-1.44,2.93-1.87,1.14-.43,2.42-.65,3.83-.65.77,0,1.48.05,2.11.16s1.19.23,1.66.39c.47.15.87.31,1.18.49s.53.33.66.46c.12.13.21.31.27.55.06.23.08.58.08,1.04Z"/>
  </g>
  <path class="cls-1" d="m66.45,6.27l16.88,18.39v65.1c0,2.16-1.45,3.98-3.16,3.98H19.82c-1.71,0-3.15-1.82-3.15-3.98V10.24c0-2.16,1.44-3.98,3.15-3.98h46.63m2.64-6H19.82c-5.05,0-9.15,4.47-9.15,9.98v79.51c0,5.51,4.1,9.98,9.15,9.98h60.35c5.05,0,9.16-4.47,9.16-9.98V22.32L69.09.27h0Z"/>
</svg>