<?xml version="1.0" encoding="UTF-8"?>
<svg id="_图层_1" data-name="图层 1" xmlns="http://www.w3.org/2000/svg" viewBox="0 0 100 100">
  <defs>
    <style>
      .cls-1 {
        fill: #10b0ff;
      }
    </style>
  </defs>
  <g>
    <path class="cls-1" d="m32.4,42.7c0,.94-.17,1.76-.52,2.47s-.82,1.3-1.42,1.77-1.3.83-2.1,1.07-1.66.36-2.57.36c-.62,0-1.19-.05-1.72-.15s-1-.22-1.4-.37-.74-.29-1.01-.45c-.27-.16-.47-.29-.59-.41s-.21-.29-.26-.52-.08-.55-.08-.97c0-.29,0-.52.03-.72s.05-.35.09-.47c.04-.12.1-.2.17-.26.07-.05.15-.08.24-.08.13,0,.31.08.54.23.24.15.54.32.9.5s.81.35,1.32.5c.51.15,1.1.23,1.77.23.44,0,.84-.05,1.19-.16s.65-.26.89-.45.43-.43.56-.72.19-.6.19-.95c0-.4-.11-.75-.33-1.04-.22-.29-.51-.55-.86-.77-.35-.22-.76-.44-1.21-.63-.45-.2-.92-.41-1.39-.63s-.94-.47-1.39-.75c-.45-.28-.85-.62-1.21-1.01-.36-.39-.64-.85-.86-1.39s-.33-1.17-.33-1.92c0-.86.16-1.61.48-2.26.32-.65.75-1.19,1.28-1.61.54-.43,1.17-.75,1.9-.96.73-.21,1.51-.32,2.33-.32.42,0,.85.03,1.27.1s.82.15,1.19.26.69.23.98.37.47.25.57.35.15.17.19.23.06.15.08.25c.02.11.04.24.05.4s.01.36.01.6c0,.27,0,.49-.02.68-.02.18-.04.34-.07.46s-.08.21-.14.26-.14.08-.24.08-.26-.06-.48-.19-.49-.27-.81-.42c-.32-.15-.69-.29-1.12-.41-.42-.13-.89-.19-1.39-.19-.4,0-.74.05-1.04.14-.29.1-.54.23-.74.4s-.34.37-.44.61c-.1.24-.14.49-.14.76,0,.4.11.74.33,1.03.21.29.5.55.87.77s.78.44,1.24.63.93.41,1.41.63.95.47,1.41.75.87.62,1.23,1.01c.36.39.65.85.87,1.38.22.53.33,1.15.33,1.87Z"/>
    <path class="cls-1" d="m50.39,38.92c0,1.48-.18,2.81-.55,3.98s-.92,2.16-1.64,2.98c-.73.81-1.63,1.44-2.7,1.86-1.07.43-2.31.64-3.72.64s-2.6-.18-3.64-.54c-1.04-.36-1.9-.92-2.59-1.66s-1.21-1.69-1.55-2.84c-.35-1.15-.52-2.51-.52-4.09,0-1.44.18-2.74.55-3.9.37-1.15.92-2.14,1.64-2.95s1.63-1.43,2.7-1.86,2.32-.65,3.73-.65,2.55.18,3.58.54c1.04.36,1.9.91,2.6,1.66s1.22,1.69,1.57,2.82c.35,1.14.53,2.48.53,4.02Zm-3.81.19c0-.94-.07-1.79-.22-2.56-.15-.77-.4-1.42-.75-1.97s-.83-.97-1.41-1.27-1.33-.45-2.21-.45-1.64.17-2.24.5-1.08.78-1.45,1.35-.63,1.22-.78,1.97c-.15.75-.23,1.54-.23,2.38,0,.98.07,1.85.22,2.63.15.78.4,1.44.75,2s.82.97,1.41,1.26c.59.29,1.33.44,2.22.44s1.64-.17,2.24-.5,1.08-.78,1.45-1.35.63-1.24.78-1.99c.15-.76.23-1.57.23-2.42Z"/>
    <path class="cls-1" d="m62.41,46.54c0,.28-.01.51-.03.7-.02.19-.06.35-.1.47-.05.13-.1.21-.17.27-.07.06-.15.08-.24.08h-8.19c-.3,0-.56-.09-.77-.27-.21-.18-.31-.47-.31-.88v-16.22c0-.09.03-.17.09-.25.06-.07.16-.13.3-.18s.32-.08.56-.11c.23-.03.53-.04.88-.04s.65.01.88.04.41.06.55.11.24.11.3.18.09.16.09.25v14.37h5.62c.09,0,.17.03.24.08.07.05.13.13.17.25.05.12.08.27.1.46.02.19.03.42.03.7Z"/>
    <path class="cls-1" d="m79.27,38.92c0,1.48-.18,2.81-.55,3.98s-.92,2.16-1.64,2.98c-.73.81-1.63,1.44-2.7,1.86-1.07.43-2.31.64-3.72.64s-2.6-.18-3.64-.54c-1.04-.36-1.9-.92-2.59-1.66s-1.21-1.69-1.55-2.84c-.35-1.15-.52-2.51-.52-4.09,0-1.44.18-2.74.55-3.9.37-1.15.92-2.14,1.64-2.95s1.63-1.43,2.7-1.86,2.32-.65,3.73-.65,2.55.18,3.58.54c1.04.36,1.9.91,2.6,1.66s1.22,1.69,1.57,2.82c.35,1.14.53,2.48.53,4.02Zm-3.81.19c0-.94-.07-1.79-.22-2.56-.15-.77-.4-1.42-.75-1.97s-.83-.97-1.41-1.27-1.33-.45-2.21-.45-1.64.17-2.24.5-1.08.78-1.45,1.35-.63,1.22-.78,1.97c-.15.75-.23,1.54-.23,2.38,0,.98.07,1.85.22,2.63.15.78.4,1.44.75,2s.82.97,1.41,1.26c.59.29,1.33.44,2.22.44s1.64-.17,2.24-.5,1.08-.78,1.45-1.35.63-1.24.78-1.99c.15-.76.23-1.57.23-2.42Z"/>
    <path class="cls-1" d="m35.06,69.57c0,.1-.02.19-.06.25-.04.07-.12.13-.26.17s-.34.08-.61.1-.63.03-1.09.03c-.39,0-.69,0-.92-.03s-.41-.05-.55-.1c-.13-.05-.23-.11-.28-.19-.06-.08-.1-.17-.14-.28l-1.6-3.99c-.19-.45-.38-.85-.57-1.2s-.39-.64-.62-.88c-.23-.23-.48-.41-.78-.53s-.63-.18-1.02-.18h-1.13v6.81c0,.09-.03.17-.09.25-.06.07-.16.13-.3.18s-.32.08-.55.11-.52.04-.88.04-.64-.01-.88-.04c-.23-.03-.42-.06-.56-.11s-.23-.11-.29-.18-.08-.16-.08-.25v-16.22c0-.4.1-.7.31-.88.21-.18.46-.27.77-.27h4.62c.47,0,.86,0,1.16.03s.58.04.83.07c.72.1,1.36.28,1.94.52s1.06.57,1.46.97c.4.4.71.87.92,1.42.21.55.32,1.18.32,1.88,0,.6-.08,1.14-.23,1.64-.15.49-.38.93-.67,1.32s-.66.72-1.09,1.01-.92.52-1.48.69c.27.13.52.29.75.47.23.18.45.41.66.67.21.26.4.56.59.9s.36.71.54,1.14l1.5,3.52c.14.35.23.61.28.77.05.16.07.29.07.38Zm-4.68-12.12c0-.59-.13-1.09-.4-1.49s-.7-.69-1.31-.86c-.18-.05-.39-.08-.63-.11-.23-.03-.56-.04-.97-.04h-1.63v5.07h1.85c.52,0,.97-.06,1.35-.19.39-.12.71-.3.97-.52.26-.22.45-.49.58-.81s.19-.66.19-1.05Z"/>
    <path class="cls-1" d="m51.51,68.69c.11.33.18.59.21.79s0,.34-.11.43c-.1.1-.28.16-.54.18-.26.02-.61.03-1.06.03s-.83,0-1.1-.02c-.26-.01-.46-.04-.6-.08-.14-.04-.23-.1-.29-.17s-.1-.17-.14-.29l-1.2-3.59h-6.71l-1.13,3.49c-.04.13-.09.24-.15.33s-.16.16-.29.21c-.13.05-.32.09-.57.1s-.56.03-.96.03c-.42,0-.75-.01-.99-.04s-.4-.09-.5-.2c-.09-.1-.12-.25-.1-.45s.1-.45.21-.77l5.51-15.85c.06-.16.12-.28.19-.38.07-.1.19-.17.35-.22.16-.05.38-.08.67-.1.29-.02.66-.02,1.13-.02.54,0,.98,0,1.3.02.32.01.57.05.75.1.18.05.31.13.39.23s.15.24.2.41l5.52,15.83Zm-8.2-13.1h-.01l-2.53,7.59h5.07l-2.53-7.59Z"/>
    <path class="cls-1" d="m70.85,69.12c-.06.22-.13.4-.23.53-.1.13-.24.23-.43.3-.19.07-.44.11-.75.14-.3.02-.69.03-1.16.03-.52,0-.95-.01-1.26-.03-.32-.02-.57-.07-.75-.14-.18-.07-.32-.17-.4-.3s-.15-.31-.19-.53l-2.86-11.32h-.03l-2.71,11.32c-.05.21-.11.38-.19.52-.08.13-.21.24-.39.31-.18.07-.42.12-.73.15-.31.02-.72.03-1.22.03-.53,0-.96-.01-1.28-.03-.32-.02-.57-.07-.75-.14-.18-.07-.32-.17-.4-.3s-.15-.31-.21-.53l-4.06-15.58c-.08-.33-.13-.59-.14-.78s.04-.33.16-.44c.11-.1.3-.16.56-.19.26-.02.63-.03,1.1-.03.43,0,.77,0,1.03.02.25.01.44.05.57.1.13.05.22.13.26.22.05.1.08.23.11.41l3.13,13.68h.01l3.26-13.58c.04-.17.08-.32.15-.43.06-.11.16-.19.3-.25.14-.06.34-.1.59-.13.25-.02.58-.03.99-.03.44,0,.79,0,1.06.03.26.02.46.06.61.12.14.06.25.15.31.26s.12.26.15.44l3.37,13.58h.03l3.13-13.64c.03-.15.06-.27.11-.38s.13-.19.26-.25.31-.1.55-.13c.24-.02.58-.03,1.01-.03.4,0,.72.01.95.03.22.02.39.09.49.19s.15.25.13.45c-.01.2-.06.47-.14.81l-4.1,15.54Z"/>
  </g>
  <path class="cls-1" d="m66.45,6.27l16.88,18.39v65.1c0,2.16-1.45,3.98-3.16,3.98H19.82c-1.71,0-3.15-1.82-3.15-3.98V10.24c0-2.16,1.44-3.98,3.15-3.98h46.63m2.64-6H19.82c-5.05,0-9.15,4.47-9.15,9.98v79.51c0,5.51,4.1,9.98,9.15,9.98h60.35c5.05,0,9.16-4.47,9.16-9.98V22.32L69.09.27h0Z"/>
</svg>