<?xml version="1.0" encoding="UTF-8"?>
<svg id="_图层_1" data-name="图层 1" xmlns="http://www.w3.org/2000/svg" viewBox="0 0 100 100">
  <defs>
    <style>
      .cls-1 {
        fill: #10b0ff;
      }
    </style>
  </defs>
  <g>
    <path class="cls-1" d="m42.71,46.47c.11.33.18.59.21.79s0,.34-.11.43c-.1.1-.28.16-.54.18-.26.02-.61.03-1.06.03s-.83,0-1.1-.02c-.26-.01-.46-.04-.6-.08-.14-.04-.23-.1-.29-.17s-.1-.17-.14-.29l-1.2-3.59h-6.71l-1.13,3.49c-.04.13-.09.24-.15.33s-.16.16-.29.21c-.13.05-.32.09-.57.1s-.56.03-.96.03c-.42,0-.75-.01-.99-.04s-.4-.09-.5-.2c-.09-.1-.12-.25-.1-.45s.1-.45.21-.77l5.51-15.85c.06-.16.12-.28.19-.38.07-.1.19-.17.35-.22.16-.05.38-.08.67-.1.29-.02.66-.02,1.13-.02.54,0,.98,0,1.3.02.32.01.57.05.75.1.18.05.31.13.39.23s.15.24.2.41l5.52,15.83Zm-8.2-13.1h-.01l-2.53,7.59h5.07l-2.53-7.59Z"/>
    <path class="cls-1" d="m54.46,46.31c0,.28-.01.51-.03.7-.02.19-.06.35-.1.47-.05.13-.1.21-.17.27-.07.06-.15.08-.24.08h-8.19c-.3,0-.56-.09-.77-.27-.21-.18-.31-.47-.31-.88v-16.22c0-.09.03-.17.09-.25.06-.07.16-.13.3-.18s.32-.08.56-.11c.23-.03.53-.04.88-.04s.65.01.88.04.41.06.55.11.24.11.3.18.09.16.09.25v14.37h5.62c.09,0,.17.03.24.08.07.05.13.13.17.25.05.12.08.27.1.46.02.19.03.42.03.7Z"/>
    <path class="cls-1" d="m65.84,46.31c0,.28-.01.51-.03.7-.02.19-.06.35-.1.47-.05.13-.1.21-.17.27-.07.06-.15.08-.24.08h-8.19c-.3,0-.56-.09-.77-.27-.21-.18-.31-.47-.31-.88v-16.22c0-.09.03-.17.09-.25.06-.07.16-.13.3-.18s.32-.08.56-.11c.23-.03.53-.04.88-.04s.65.01.88.04.41.06.55.11.24.11.3.18.09.16.09.25v14.37h5.62c.09,0,.17.03.24.08.07.05.13.13.17.25.05.12.08.27.1.46.02.19.03.42.03.7Z"/>
    <path class="cls-1" d="m31.72,69.32c0,.09-.03.17-.09.25s-.16.13-.3.18-.32.08-.55.11-.52.04-.88.04-.64-.01-.88-.04c-.24-.03-.42-.06-.56-.11s-.24-.11-.3-.18c-.06-.07-.09-.16-.09-.25v-16.87c0-.09.03-.17.09-.25.06-.07.16-.13.3-.18.14-.05.33-.08.56-.11s.52-.04.87-.04.65.01.88.04.41.06.55.11.24.11.3.18.09.16.09.25v16.87Z"/>
    <path class="cls-1" d="m55.86,69.32c0,.09-.03.17-.08.25-.05.07-.14.13-.28.18-.13.05-.31.08-.53.11s-.5.04-.84.04-.61-.01-.83-.04-.4-.06-.52-.11-.22-.11-.28-.18-.08-.16-.08-.25v-14.54h-.03l-5.18,14.52c-.04.12-.1.22-.18.3-.08.08-.2.14-.34.19-.14.05-.33.08-.55.09-.22.02-.49.02-.8.02s-.58-.01-.8-.03c-.22-.02-.4-.06-.55-.11s-.25-.11-.34-.19-.14-.16-.17-.26l-5-14.52h-.03v14.54c0,.09-.03.17-.08.25s-.14.13-.28.18-.32.08-.53.11c-.22.03-.5.04-.84.04s-.61-.01-.83-.04-.4-.06-.53-.11-.23-.11-.28-.18-.08-.16-.08-.25v-15.92c0-.47.12-.83.37-1.08s.58-.37.99-.37h2.37c.42,0,.79.03,1.09.1.3.07.57.18.79.34.22.16.4.37.55.63.15.26.28.59.39.97l3.86,10.64h.06l4-10.61c.12-.39.25-.71.39-.98s.31-.48.5-.65.41-.28.67-.35c.26-.07.56-.1.9-.1h2.44c.25,0,.46.03.64.1.18.06.33.16.44.28.11.12.2.28.26.45.06.18.09.38.09.62v15.92Z"/>
    <path class="cls-1" d="m73.52,54.73c0,.27-.01.5-.04.69s-.06.35-.1.46c-.04.12-.09.2-.15.24s-.13.07-.21.07c-.12,0-.31-.08-.58-.25s-.62-.35-1.06-.54-.97-.37-1.58-.54c-.61-.17-1.32-.25-2.13-.25-.87,0-1.65.15-2.35.45s-1.3.72-1.79,1.27-.88,1.21-1.15,1.97c-.27.77-.4,1.62-.4,2.55,0,1.02.13,1.92.41,2.7.27.78.65,1.43,1.14,1.95s1.07.92,1.76,1.19,1.44.4,2.27.4c.4,0,.81-.05,1.2-.14s.76-.23,1.1-.41v-4.14h-3.38c-.17,0-.29-.1-.39-.31-.09-.21-.14-.56-.14-1.06,0-.26.01-.47.04-.65.02-.17.06-.31.1-.42.05-.1.1-.18.17-.23s.14-.08.22-.08h6.03c.15,0,.28.03.39.08s.22.13.3.23.15.22.2.37c.05.14.07.31.07.49v7.11c0,.28-.05.52-.14.73-.1.21-.3.37-.6.49s-.67.24-1.11.37-.9.24-1.37.33-.95.16-1.44.21c-.48.05-.97.07-1.46.07-1.43,0-2.7-.21-3.83-.61-1.13-.41-2.08-1-2.86-1.78-.78-.78-1.38-1.72-1.79-2.84-.41-1.12-.62-2.38-.62-3.8s.22-2.78.66-3.94,1.07-2.15,1.88-2.97c.81-.81,1.79-1.44,2.93-1.87,1.14-.43,2.42-.65,3.83-.65.77,0,1.48.05,2.11.16s1.19.23,1.66.39c.47.15.87.31,1.18.49s.53.33.66.46c.12.13.21.31.27.55.06.23.08.58.08,1.04Z"/>
  </g>
  <path class="cls-1" d="m66.45,6.27l16.88,18.39v65.1c0,2.16-1.45,3.98-3.16,3.98H19.82c-1.71,0-3.15-1.82-3.15-3.98V10.24c0-2.16,1.44-3.98,3.15-3.98h46.63m2.64-6H19.82c-5.05,0-9.15,4.47-9.15,9.98v79.51c0,5.51,4.1,9.98,9.15,9.98h60.35c5.05,0,9.16-4.47,9.16-9.98V22.32L69.09.27h0Z"/>
</svg>