<?xml version="1.0" encoding="UTF-8"?>
<svg id="_图层_1" data-name="图层 1" xmlns="http://www.w3.org/2000/svg" viewBox="0 0 100 100">
  <defs>
    <style>
      .cls-1 {
        fill: #10b0ff;
      }
    </style>
  </defs>
  <g>
    <path class="cls-1" d="m38.82,46.58c.11.33.17.59.2.79s0,.34-.11.43c-.1.1-.27.16-.52.18-.25.02-.6.03-1.03.03s-.81,0-1.07-.02c-.25-.01-.45-.04-.58-.08-.13-.04-.23-.1-.28-.17s-.1-.17-.13-.29l-1.17-3.59h-6.52l-1.1,3.49c-.04.13-.08.24-.14.33s-.15.16-.28.21c-.13.05-.31.09-.55.1s-.55.03-.93.03c-.41,0-.73-.01-.97-.04s-.39-.09-.48-.2c-.09-.1-.12-.25-.09-.45s.09-.45.2-.77l5.36-15.85c.05-.16.12-.28.19-.38.07-.1.18-.17.34-.22.16-.05.37-.08.65-.1.28-.02.64-.02,1.1-.02.53,0,.95,0,1.26.02.31.01.56.05.73.1.18.05.3.13.38.23s.14.24.2.41l5.37,15.83Zm-7.97-13.1h-.01l-2.46,7.59h4.93l-2.46-7.59Z"/>
    <path class="cls-1" d="m50.24,46.42c0,.28-.01.51-.03.7-.02.19-.06.35-.1.47-.04.13-.1.21-.17.27-.07.06-.15.08-.24.08h-7.96c-.3,0-.54-.09-.74-.27-.2-.18-.3-.47-.3-.88v-16.22c0-.09.03-.17.09-.25.06-.07.15-.13.29-.18s.31-.08.54-.11c.23-.03.51-.04.85-.04s.64.01.86.04.4.06.54.11.23.11.29.18.09.16.09.25v14.37h5.46c.09,0,.17.03.24.08.07.05.12.13.17.25.04.12.08.27.1.46.02.19.03.42.03.7Z"/>
    <path class="cls-1" d="m61.32,46.42c0,.28-.01.51-.03.7-.02.19-.06.35-.1.47-.04.13-.1.21-.17.27-.07.06-.15.08-.24.08h-7.96c-.3,0-.54-.09-.74-.27-.2-.18-.3-.47-.3-.88v-16.22c0-.09.03-.17.09-.25.06-.07.15-.13.29-.18s.31-.08.54-.11c.23-.03.51-.04.85-.04s.64.01.86.04.4.06.54.11.23.11.29.18.09.16.09.25v14.37h5.46c.09,0,.17.03.24.08.07.05.12.13.17.25.04.12.08.27.1.46.02.19.03.42.03.7Z"/>
    <path class="cls-1" d="m37.47,69.46c0,.1-.02.19-.05.25-.04.07-.12.13-.26.17s-.33.08-.59.1-.61.03-1.06.03c-.38,0-.68,0-.9-.03s-.4-.05-.53-.1c-.13-.05-.22-.11-.27-.19-.05-.08-.1-.17-.13-.28l-1.56-3.99c-.19-.45-.37-.85-.55-1.2s-.38-.64-.6-.88c-.22-.23-.47-.41-.76-.53s-.62-.18-.99-.18h-1.1v6.81c0,.09-.03.17-.09.25-.06.07-.16.13-.29.18s-.31.08-.54.11-.51.04-.86.04-.62-.01-.85-.04c-.23-.03-.41-.06-.54-.11s-.23-.11-.28-.18-.08-.16-.08-.25v-16.22c0-.4.1-.7.3-.88.2-.18.45-.27.74-.27h4.5c.46,0,.83,0,1.13.03s.56.04.81.07c.7.1,1.33.28,1.89.52s1.04.57,1.42.97c.39.4.69.87.89,1.42.21.55.31,1.18.31,1.88,0,.6-.07,1.14-.22,1.64-.15.49-.37.93-.65,1.32s-.64.72-1.06,1.01-.9.52-1.44.69c.26.13.5.29.73.47.23.18.44.41.64.67.2.26.39.56.57.9s.35.71.52,1.14l1.46,3.52c.13.35.22.61.27.77.04.16.07.29.07.38Zm-4.55-12.12c0-.59-.13-1.09-.39-1.49s-.68-.69-1.28-.86c-.18-.05-.38-.08-.61-.11-.23-.03-.54-.04-.95-.04h-1.58v5.07h1.8c.5,0,.94-.06,1.32-.19.38-.12.69-.3.94-.52.25-.22.44-.49.56-.81s.19-.66.19-1.05Z"/>
    <path class="cls-1" d="m53.74,68.57c.11.33.17.59.2.79s0,.34-.11.43c-.1.1-.27.16-.52.18-.25.02-.6.03-1.03.03s-.81,0-1.07-.02c-.25-.01-.45-.04-.58-.08-.13-.04-.23-.1-.28-.17s-.1-.17-.13-.29l-1.17-3.59h-6.52l-1.1,3.49c-.04.13-.08.24-.14.33s-.15.16-.28.21c-.13.05-.31.09-.55.1s-.55.03-.93.03c-.41,0-.73-.01-.97-.04s-.39-.09-.48-.2c-.09-.1-.12-.25-.09-.45s.09-.45.2-.77l5.36-15.85c.05-.16.12-.28.19-.38.07-.1.18-.17.34-.22.16-.05.37-.08.65-.1.28-.02.64-.02,1.1-.02.53,0,.95,0,1.26.02.31.01.56.05.73.1.18.05.3.13.38.23s.14.24.2.41l5.37,15.83Zm-7.97-13.1h-.01l-2.46,7.59h4.93l-2.46-7.59Z"/>
    <path class="cls-1" d="m72.84,69c-.05.22-.13.4-.22.53-.09.13-.23.23-.42.3-.19.07-.43.11-.72.14-.3.02-.67.03-1.13.03-.51,0-.92-.01-1.23-.03-.31-.02-.55-.07-.73-.14-.18-.07-.31-.17-.39-.3s-.14-.31-.19-.53l-2.78-11.32h-.03l-2.63,11.32c-.04.21-.11.38-.19.52-.08.13-.21.24-.38.31-.17.07-.41.12-.71.15-.3.02-.7.03-1.19.03-.52,0-.93-.01-1.24-.03-.31-.02-.55-.07-.73-.14-.18-.07-.31-.17-.39-.3s-.15-.31-.2-.53l-3.95-15.58c-.08-.33-.13-.59-.13-.78s.04-.33.16-.44c.11-.1.3-.16.55-.19.26-.02.61-.03,1.07-.03.42,0,.75,0,1,.02.25.01.43.05.56.1.13.05.21.13.26.22.04.1.08.23.11.41l3.05,13.68h.01l3.17-13.58c.04-.17.08-.32.14-.43.06-.11.16-.19.3-.25.14-.06.33-.1.57-.13.24-.02.56-.03.97-.03.43,0,.77,0,1.03.03.26.02.45.06.59.12.14.06.24.15.3.26s.11.26.15.44l3.28,13.58h.03l3.05-13.64c.03-.15.06-.27.11-.38s.13-.19.26-.25.3-.1.54-.13c.23-.02.56-.03.98-.03.39,0,.7.01.92.03.22.02.38.09.48.19s.14.25.13.45c-.01.2-.06.47-.14.81l-3.99,15.54Z"/>
  </g>
  <path class="cls-1" d="m66.45,6.27l16.88,18.39v65.1c0,2.16-1.45,3.98-3.16,3.98H19.82c-1.71,0-3.15-1.82-3.15-3.98V10.24c0-2.16,1.44-3.98,3.15-3.98h46.63m2.64-6H19.82c-5.05,0-9.15,4.47-9.15,9.98v79.51c0,5.51,4.1,9.98,9.15,9.98h60.35c5.05,0,9.16-4.47,9.16-9.98V22.32L69.09.27h0Z"/>
</svg>