<?xml version="1.0" encoding="UTF-8"?>
<svg id="_图层_1" data-name="图层 1" xmlns="http://www.w3.org/2000/svg" viewBox="0 0 100 100">
  <defs>
    <style>
      .cls-1 {
        fill: #10b0ff;
      }
    </style>
  </defs>
  <g>
    <path class="cls-1" d="m28.63,59.45c0,.1-.03.2-.1.28s-.18.15-.33.2-.36.09-.62.12-.59.05-.99.05-.72-.02-.98-.05c-.26-.03-.47-.07-.63-.12s-.27-.12-.33-.2c-.07-.08-.1-.18-.1-.28v-18.9c0-.1.03-.2.1-.28.07-.08.18-.15.34-.2.16-.05.37-.09.63-.12s.58-.05.97-.05.73.02.99.05.46.07.62.12.26.12.33.2.1.18.1.28v18.9Z"/>
    <path class="cls-1" d="m55.67,59.45c0,.1-.03.2-.08.28-.06.08-.16.15-.31.2-.15.05-.35.09-.6.12s-.56.05-.94.05-.68-.02-.93-.05-.44-.07-.59-.12-.25-.12-.31-.2-.09-.18-.09-.28v-16.28h-.03l-5.8,16.27c-.04.13-.11.25-.2.33-.09.09-.22.16-.38.21-.16.05-.36.09-.61.1-.25.02-.55.02-.9.02s-.65-.01-.9-.04c-.25-.03-.45-.07-.61-.12s-.29-.13-.38-.21-.15-.18-.19-.29l-5.6-16.27h-.03v16.28c0,.1-.03.2-.09.28s-.16.15-.32.2-.35.09-.59.12c-.24.03-.56.05-.94.05s-.68-.02-.93-.05-.45-.07-.6-.12-.25-.12-.31-.2-.08-.18-.08-.28v-17.83c0-.53.14-.93.42-1.21s.65-.42,1.11-.42h2.66c.47,0,.88.04,1.22.12.34.08.63.21.88.38.25.18.45.42.62.71.16.3.31.66.43,1.09l4.33,11.92h.06l4.48-11.89c.13-.43.28-.8.44-1.1s.35-.54.56-.73.46-.32.75-.39c.29-.08.62-.12,1.01-.12h2.74c.28,0,.52.04.72.11.2.07.36.18.49.32.13.14.23.31.29.51.07.2.1.43.1.69v17.83Z"/>
    <path class="cls-1" d="m75.46,43.1c0,.3-.01.56-.04.77s-.06.39-.11.52c-.05.13-.1.22-.17.27s-.15.08-.24.08c-.13,0-.35-.09-.65-.28s-.7-.39-1.19-.6-1.09-.42-1.77-.6c-.69-.19-1.48-.28-2.39-.28-.97,0-1.85.17-2.63.5s-1.45.81-2.01,1.42-.98,1.35-1.28,2.21c-.3.86-.45,1.81-.45,2.85,0,1.14.15,2.15.46,3.02.3.87.73,1.6,1.28,2.19s1.2,1.03,1.97,1.33,1.62.45,2.54.45c.45,0,.9-.05,1.35-.15s.86-.26,1.24-.46v-4.64h-3.79c-.19,0-.33-.12-.43-.35-.1-.23-.15-.63-.15-1.18,0-.29.01-.53.04-.73.02-.2.06-.35.12-.47.05-.12.11-.2.19-.26s.15-.09.25-.09h6.76c.16,0,.31.03.44.09s.24.14.34.25.17.25.23.41c.05.16.08.34.08.55v7.96c0,.31-.05.58-.16.81-.11.23-.33.41-.67.55s-.75.27-1.24.42-1.01.27-1.54.37-1.07.18-1.61.23c-.54.05-1.08.08-1.63.08-1.6,0-3.03-.23-4.29-.69-1.26-.46-2.33-1.12-3.21-2-.88-.87-1.55-1.93-2.01-3.19-.46-1.25-.7-2.67-.7-4.26s.25-3.11.74-4.41,1.2-2.41,2.1-3.33c.91-.91,2-1.61,3.29-2.09,1.28-.48,2.71-.73,4.29-.73.87,0,1.65.06,2.37.18s1.33.26,1.86.43c.53.17.97.35,1.32.55s.59.37.74.51c.14.14.24.35.3.61.06.26.09.65.09,1.17Z"/>
  </g>
  <path class="cls-1" d="m66.45,6.27l16.88,18.39v65.1c0,2.16-1.45,3.98-3.16,3.98H19.82c-1.71,0-3.15-1.82-3.15-3.98V10.24c0-2.16,1.44-3.98,3.15-3.98h46.63m2.64-6H19.82c-5.05,0-9.15,4.47-9.15,9.98v79.51c0,5.51,4.1,9.98,9.15,9.98h60.35c5.05,0,9.16-4.47,9.16-9.98V22.32L69.09.27h0Z"/>
</svg>