<?xml version="1.0" encoding="UTF-8"?>
<svg id="_图层_1" data-name="图层 1" xmlns="http://www.w3.org/2000/svg" viewBox="0 0 100 100">
  <defs>
    <style>
      .cls-1 {
        fill: #10b0ff;
      }
    </style>
  </defs>
  <path class="cls-1" d="m98.87,60.88c-.03-.3-.08-.6-.12-.9-.07-.53-.14-1.05-.24-1.57-.07-.37-.15-.73-.24-1.1-.1-.42-.21-.84-.32-1.26-.12-.41-.24-.81-.38-1.21-.11-.34-.24-.67-.37-1-.17-.45-.34-.89-.54-1.33-.1-.21-.2-.42-.3-.63-.88-1.83-1.94-3.56-3.19-5.14-1.66-2.1-3.62-3.95-5.83-5.48-.34-.23-.69-.44-1.03-.66-.31-.19-.61-.38-.93-.57-.35-.2-.7-.39-1.06-.57-.35-.18-.72-.35-1.08-.52-.33-.15-.66-.31-1-.45-.67-.28-1.36-.53-2.06-.75-.22-.07-.46-.12-.68-.19-.55-.16-1.1-.31-1.67-.43-.28-.06-.57-.11-.86-.17-.55-.1-1.11-.19-1.67-.25-.26-.03-.52-.07-.78-.09-.82-.07-1.64-.13-2.48-.13-7.44,0-14.18,3.02-19.06,7.89-2.44,2.44-4.41,5.34-5.78,8.57-.34.81-.64,1.63-.91,2.48-.79,2.53-1.21,5.22-1.21,8.01,0,.9.05,1.79.13,2.67.04.4.11.79.17,1.18.07.46.12.93.21,1.39.1.53.24,1.04.38,1.55.08.3.14.61.23.91.18.6.4,1.2.62,1.78.07.19.13.38.21.56.26.65.56,1.29.87,1.92.05.1.09.2.14.3.35.68.73,1.34,1.13,1.98.02.04.05.08.07.12.43.67.88,1.33,1.37,1.96,0,0,0,.01.01.02.49.64,1.02,1.27,1.57,1.86,2.18,2.38,4.78,4.36,7.68,5.83.82.42,1.67.79,2.54,1.12.23.09.46.17.69.25.53.19,1.07.36,1.61.51.45.13.91.25,1.37.35.28.06.57.13.85.18.69.13,1.4.24,2.11.32.18.02.35.03.53.05.8.07,1.61.12,2.44.12,14.88,0,26.95-12.07,26.95-26.95,0-.86-.05-1.71-.13-2.56Zm-8.61-2.91c0,1.15-.93,2.08-2.08,2.08h-7.97c-1.15,0-2.08-.93-2.08-2.08v-.23l-12.78,4.96h0l12.78,4.4v-.71c0-1.15.93-2.08,2.08-2.08h7.97c1.15,0,2.08.93,2.08,2.08v7.97c0,1.15-.93,2.08-2.08,2.08h-7.97c-1.15,0-2.08-.93-2.08-2.08v-2.03l-15.71-5.64c-.09,1.06-.97,1.9-2.06,1.9h-7.97c-1.15,0-2.08-.93-2.08-2.08v-7.97c0-1.15.93-2.08,2.08-2.08h7.97c1.15,0,2.08.93,2.08,2.08v.05l15.7-6.12v-2.49c0-1.15.93-2.08,2.08-2.08h7.97c1.15,0,2.08.93,2.08,2.08v7.98Z"/>
  <path class="cls-1" d="m48.57,83.44h-29.49c-5.69,0-10.33-4.63-10.33-10.33V31.94h30.3c1.95,0,3.84-.68,5.34-1.93l6.77-5.64h27.53c5.69,0,10.33,4.63,10.33,10.33v3.19c2.2,1.32,4.25,2.88,6.06,4.69v-7.88c0-9.04-7.35-16.39-16.39-16.39h-29.05l-6.63-6.63c-1.57-1.57-3.71-2.46-5.94-2.46h-18c-9.05,0-16.39,7.34-16.39,16.39v47.5c0,9.04,7.35,16.39,16.39,16.39h35.69c-2.34-1.72-4.43-3.76-6.21-6.06ZM8.75,25.61c0-5.7,4.62-10.33,10.33-10.33h14.52c2.11,0,4.14.79,5.69,2.22l4.91,4.52-2.93,2.2c-1.44,1.08-3.2,1.67-5.01,1.67H8.75v-.27Z"/>
</svg>