<?xml version="1.0" encoding="UTF-8"?>
<svg id="_图层_1" data-name="图层 1" xmlns="http://www.w3.org/2000/svg" viewBox="0 0 100 100">
  <defs>
    <style>
      .cls-1 {
        fill: #10b0ff;
      }
    </style>
  </defs>
  <path class="cls-1" d="m37.51,66.84c0,.6-.04,1.1-.1,1.52-.07.41-.17.73-.29.96-.13.23-.27.38-.43.47-.16.08-.34.11-.54.08l-20.46-3.11c-.13-.02-.25-.08-.36-.19-.11-.11-.21-.27-.3-.49s-.16-.51-.2-.86c-.05-.36-.07-.79-.07-1.29s.02-.95.06-1.3c.04-.34.11-.62.19-.83.09-.21.19-.35.3-.44.11-.09.24-.12.39-.11l6.18.65v-24.05l-5.37,3.63c-.38.23-.69.37-.92.43-.24.06-.42.02-.56-.13-.14-.14-.23-.4-.28-.78-.05-.37-.07-.9-.07-1.58,0-.43,0-.78.02-1.06.02-.28.06-.52.12-.72.06-.21.15-.38.26-.51.11-.14.27-.29.46-.45l7.17-5.94c.09-.09.21-.17.34-.24s.32-.13.54-.2c.22-.06.52-.13.88-.19.37-.07.85-.14,1.44-.23.74-.11,1.33-.19,1.8-.23.47-.04.82-.04,1.06-.01s.4.11.49.21c.08.11.12.26.12.44v32.4l6.76.71c.2.02.39.1.56.23.17.14.32.34.44.61.13.27.22.62.28,1.04.06.42.09.95.09,1.57Z"/>
  <path class="cls-1" d="m85.3,61.2c0,.43-.01.8-.05,1.11-.03.31-.08.57-.14.78-.06.21-.14.36-.24.46-.1.1-.21.17-.34.2l-17.4,3.72c-.43.09-.81.14-1.12.13-.32,0-.59-.1-.79-.28-.21-.18-.35-.47-.45-.88-.09-.41-.14-.95-.14-1.63,0-.64.03-1.19.09-1.65.06-.46.17-.88.34-1.27.16-.38.37-.75.62-1.12s.58-.77.97-1.22l6.16-7.08c1.13-1.26,2.01-2.38,2.67-3.37.65-.97,1.14-1.84,1.5-2.63.35-.78.59-1.49.72-2.14.13-.65.19-1.27.19-1.87,0-.54-.08-1.06-.24-1.57-.16-.5-.39-.96-.71-1.36-.32-.41-.72-.75-1.2-1.02-.49-.28-1.08-.46-1.77-.56-.99-.14-1.89-.13-2.68.03-.81.17-1.54.38-2.18.64-.65.27-1.19.52-1.64.76-.45.24-.8.35-1.06.33-.18-.02-.33-.09-.46-.22-.13-.13-.24-.33-.32-.61s-.15-.64-.2-1.1c-.05-.46-.08-1.01-.08-1.66,0-.44.02-.81.05-1.1.03-.29.08-.54.14-.76.06-.21.14-.39.24-.53.1-.14.28-.31.53-.49s.7-.39,1.35-.61c.64-.22,1.42-.4,2.32-.55.88-.14,1.84-.2,2.86-.2s2,.11,3.02.33c1.56.33,2.88.82,3.97,1.46,1.06.62,1.91,1.35,2.58,2.18.66.82,1.14,1.72,1.45,2.72.31.99.46,2.02.46,3.11,0,.95-.08,1.88-.23,2.79-.15.92-.47,1.9-.96,2.96-.5,1.08-1.21,2.29-2.15,3.65-.96,1.4-2.28,3.08-3.99,5.08l-3.63,4.4,11.08-1.6c.13-.02.24,0,.35.09.11.07.19.2.27.37.07.18.13.41.17.71.04.3.05.66.05,1.07Z"/>
  <path class="cls-1" d="m39.13,11.29c1.49,0,2.27,2.02,2.27,4.02v68.83c0,2-.78,4.02-2.27,4.02-.22,0-.46-.04-.72-.11l-26.91-7.52c-.66-.29-2.2-2.48-2.2-5.41V24.33c0-2.93,1.54-5.12,2.16-5.4l26.95-7.54c.26-.07.5-.11.72-.11m0-5.62c-.75,0-1.53.11-2.33.33l-26.95,7.54c-3.59,1-6.35,5.81-6.35,10.8v50.79c0,4.98,2.77,9.79,6.35,10.8l26.95,7.54c.8.22,1.58.33,2.33.33,4.53,0,8.07-3.86,8.07-9.64V15.31c0-5.79-3.54-9.64-8.07-9.64h0Z"/>
  <path class="cls-1" d="m61.19,11.29c.22,0,.46.04.72.11l26.91,7.52c.66.29,2.2,2.48,2.2,5.41v50.79c0,2.93-1.54,5.12-2.16,5.4l-26.95,7.54c-.26.07-.5.11-.72.11-1.49,0-2.27-2.02-2.27-4.02V15.31c0-2,.78-4.02,2.27-4.02m0-5.62c-4.53,0-8.07,3.86-8.07,9.64v68.83c0,5.79,3.54,9.64,8.07,9.64.75,0,1.53-.11,2.33-.33l26.95-7.54c3.59-1,6.35-5.81,6.35-10.8V24.33c0-4.98-2.76-9.79-6.35-10.8l-26.95-7.54c-.8-.22-1.58-.33-2.33-.33h0Z"/>
</svg>