<?xml version="1.0" encoding="UTF-8"?>
<svg id="_图层_1" data-name="图层 1" xmlns="http://www.w3.org/2000/svg" viewBox="0 0 100 100">
  <defs>
    <style>
      .cls-1 {
        fill: #fff;
      }

      .cls-2 {
        fill: #10b0ff;
      }
    </style>
  </defs>
  <g>
    <line class="cls-1" x1="50" y1="2.09" x2="50" y2="97.37"/>
    <g>
      <path class="cls-2" d="m50,6.59c-1.1,0-2-.9-2-2v-2.5c0-1.1.9-2,2-2s2,.9,2,2v2.5c0,1.1-.9,2-2,2Z"/>
      <path class="cls-2" d="m50,96.86c-1.1,0-2-.89-2-1.99s.9-2,2-2,2,.89,2,2-.9,1.99-2,1.99Zm0-8.39c-1.1,0-2-.9-2-2v-5.25c0-1.1.9-2,2-2s2,.9,2,2v5.25c0,1.1-.9,2-2,2Zm0-13.65c-1.1,0-2-.89-2-2v-5.25c0-1.1.9-2,2-2s2,.9,2,2v5.25c0,1.11-.9,2-2,2Zm0-13.65c-1.1,0-2-.89-2-2v-5.24c0-1.11.9-2,2-2s2,.89,2,2v5.24c0,1.11-.9,2-2,2Zm0-13.64c-1.1,0-2-.9-2-2v-5.25c0-1.1.9-2,2-2s2,.9,2,2v5.25c0,1.1-.9,2-2,2Zm0-13.65c-1.1,0-2-.89-2-2v-5.25c0-1.1.9-1.99,2-1.99s2,.89,2,1.99v5.25c0,1.11-.9,2-2,2Zm0-13.64c-1.1,0-2-.9-2-2v-5.25c0-1.1.9-2,2-2s2,.9,2,2v5.25c0,1.1-.9,2-2,2Z"/>
      <path class="cls-2" d="m50,99.37c-1.1,0-2-.9-2-2v-2.5c0-1.1.9-2,2-2s2,.9,2,2v2.5c0,1.1-.9,2-2,2Z"/>
    </g>
  </g>
  <path class="cls-2" d="m43.11,13.45v72.55c0,2.02-1.51,3.65-3.36,3.65H9.31c-2.45,0-4.07-2.75-3.06-5.17L36.69,11.94c1.5-3.57,6.42-2.41,6.42,1.52Z"/>
  <path class="cls-2" d="m56.89,13.45v72.55c0,2.02,1.51,3.65,3.36,3.65h30.45c2.45,0,4.07-2.75,3.06-5.17L63.31,11.94c-1.5-3.57-6.42-2.41-6.42,1.52Z"/>
</svg>