<?xml version="1.0" encoding="UTF-8"?>
<svg id="_图层_1" data-name="图层 1" xmlns="http://www.w3.org/2000/svg" viewBox="0 0 100 100">
  <defs>
    <style>
      .cls-1 {
        fill: #10b0ff;
      }
    </style>
  </defs>
  <g>
    <path class="cls-1" d="m34.68,59.48c0,.11-.02.21-.06.29-.04.08-.14.14-.29.19s-.38.09-.68.11-.71.03-1.22.03c-.43,0-.78-.01-1.04-.03s-.46-.06-.61-.12c-.15-.05-.25-.13-.32-.22-.06-.09-.11-.19-.15-.32l-1.79-4.47c-.22-.51-.43-.95-.63-1.35s-.44-.72-.69-.98c-.25-.26-.54-.46-.87-.59s-.71-.2-1.14-.2h-1.27v7.62c0,.1-.03.2-.1.28-.07.08-.18.15-.33.2s-.36.09-.62.12-.59.05-.99.05-.72-.02-.98-.05c-.26-.03-.47-.07-.63-.12s-.26-.12-.32-.2-.09-.18-.09-.28v-18.17c0-.45.12-.78.35-.98.23-.2.52-.3.86-.3h5.18c.53,0,.96.01,1.3.03s.65.05.93.08c.8.11,1.53.31,2.17.59s1.19.64,1.64,1.09c.45.45.79.98,1.03,1.59.24.62.36,1.32.36,2.11,0,.67-.09,1.28-.25,1.83-.17.55-.42,1.04-.75,1.48s-.74.81-1.22,1.13-1.04.58-1.65.77c.3.14.58.32.84.53.26.21.51.46.74.75.23.3.45.63.66,1.01s.41.8.6,1.28l1.69,3.94c.15.39.26.68.31.86.05.18.08.32.08.43Zm-5.24-13.58c0-.66-.15-1.22-.45-1.67s-.79-.77-1.47-.96c-.21-.05-.44-.09-.7-.12-.26-.03-.63-.05-1.09-.05h-1.82v5.68h2.07c.58,0,1.08-.07,1.52-.21.43-.14.79-.33,1.08-.59.29-.25.51-.55.65-.9s.22-.74.22-1.18Z"/>
    <path class="cls-1" d="m53.42,58.49c.12.37.2.66.23.88s-.01.38-.12.49c-.11.11-.31.18-.6.2-.29.02-.69.04-1.19.04s-.93,0-1.23-.02c-.29-.01-.52-.04-.67-.09-.15-.04-.26-.11-.32-.19s-.11-.19-.15-.32l-1.35-4.02h-7.52l-1.27,3.91c-.04.14-.1.27-.16.36s-.18.18-.32.23c-.15.06-.36.1-.64.12s-.63.03-1.07.03c-.47,0-.85-.02-1.11-.05s-.45-.1-.56-.23c-.1-.12-.14-.29-.11-.5s.11-.51.23-.87l6.17-17.75c.06-.18.13-.32.22-.43.08-.11.21-.19.4-.25.18-.05.43-.09.75-.11.32-.02.74-.02,1.27-.02.61,0,1.09,0,1.45.02.36.01.64.05.84.11.2.06.35.14.43.26s.16.27.23.46l6.19,17.74Zm-9.19-14.68h-.02l-2.83,8.51h5.68l-2.83-8.51Z"/>
    <path class="cls-1" d="m75.41,58.97c-.06.25-.15.45-.26.6-.11.15-.27.26-.49.34-.22.08-.49.13-.84.15-.34.02-.77.04-1.3.04-.59,0-1.06-.01-1.41-.04-.36-.03-.64-.08-.84-.15-.21-.08-.36-.19-.45-.34s-.16-.35-.22-.6l-3.2-12.68h-.03l-3.03,12.68c-.05.24-.12.43-.22.58-.09.15-.24.27-.44.35-.2.08-.47.14-.82.16-.35.02-.8.04-1.37.04-.6,0-1.07-.01-1.43-.04-.35-.03-.64-.08-.84-.15-.21-.08-.36-.19-.45-.34s-.17-.35-.23-.6l-4.55-17.46c-.09-.37-.14-.66-.15-.87s.05-.37.18-.49c.13-.11.34-.18.63-.21.3-.02.7-.04,1.23-.04.48,0,.87,0,1.15.02.28.01.5.05.64.11.14.06.24.14.29.25.05.11.09.26.12.46l3.51,15.33h.02l3.65-15.22c.04-.2.09-.36.16-.48.07-.12.18-.22.34-.29.16-.07.38-.11.66-.14.28-.02.65-.04,1.11-.04.49,0,.89.01,1.18.03.3.02.52.07.68.13.16.07.28.16.35.29s.13.29.17.49l3.77,15.22h.03l3.51-15.28c.03-.16.07-.31.12-.42s.15-.21.29-.28.35-.11.62-.14c.27-.02.64-.04,1.13-.04.45,0,.81.01,1.06.04.25.03.43.1.55.21s.16.28.15.5c-.01.22-.07.52-.16.91l-4.59,17.41Z"/>
  </g>
  <path class="cls-1" d="m66.45,6.27l16.88,18.39v65.1c0,2.16-1.45,3.98-3.16,3.98H19.82c-1.71,0-3.15-1.82-3.15-3.98V10.24c0-2.16,1.44-3.98,3.15-3.98h46.63m2.64-6H19.82c-5.05,0-9.15,4.47-9.15,9.98v79.51c0,5.51,4.1,9.98,9.15,9.98h60.35c5.05,0,9.16-4.47,9.16-9.98V22.32L69.09.27h0Z"/>
</svg>