<?xml version="1.0" encoding="UTF-8"?>
<svg id="_图层_1" data-name="图层 1" xmlns="http://www.w3.org/2000/svg" viewBox="0 0 100 100">
  <defs>
    <style>
      .cls-1 {
        fill: #10b0ff;
      }
    </style>
  </defs>
  <path class="cls-1" d="m96.08,49.62l-8.61-18.09h3.06c3.74,0,6.22-1.93,4.68-3.63l-10.84-11.92c-.83-.92-2.66-1.51-4.68-1.51H21.17c-2.01,0-3.84.59-4.68,1.51l-10.84,11.92c-1.55,1.7.94,3.63,4.68,3.63h3.06l-7.93,17.34c-3.21,1.23-5.45,3.95-5.45,7.11l1.62,25.54c0,4.31,4.18,7.82,9.31,7.82h78.14c5.14,0,9.31-3.51,9.31-7.82l1.62-25.54c0-2.62-1.55-4.94-3.92-6.36Zm-13.02-18.09s.08.05.1.08l7.21,16.56H10.47l7.22-16.56s.08-.05.1-.08h65.28Zm-22.05,46.5h-22.03c-2.24,0-4.06-1.81-4.06-4.04s1.82-4.04,4.06-4.04h22.03c2.24,0,4.06,1.81,4.06,4.04s-1.82,4.04-4.06,4.04Z"/>
</svg>