<?xml version="1.0" encoding="UTF-8"?>
<svg id="_图层_1" data-name="图层 1" xmlns="http://www.w3.org/2000/svg" viewBox="0 0 100 100">
  <defs>
    <style>
      .cls-1 {
        fill: #10b0ff;
      }
    </style>
  </defs>
  <path class="cls-1" d="m90.69,39.31H9.31c-5.14,0-9.31,3.51-9.31,7.82v25.54c0,4.31,4.18,7.82,9.31,7.82h81.37c5.14,0,9.31-3.51,9.31-7.82v-25.54c0-4.31-4.18-7.82-9.31-7.82Zm-29.41,23.4h-22.03c-2.24,0-4.06-1.81-4.06-4.04s1.82-4.04,4.06-4.04h22.03c2.24,0,4.06,1.81,4.06,4.04s-1.82,4.04-4.06,4.04Z"/>
  <path class="cls-1" d="m10.33,32.91h80.2c3.74,0,6.22-1.93,4.68-3.63l-10.84-11.92c-.83-.92-2.66-1.51-4.68-1.51H21.17c-2.01,0-3.84.59-4.68,1.51l-10.84,11.92c-1.55,1.7.94,3.63,4.68,3.63Z"/>
</svg>