<?xml version="1.0" encoding="UTF-8"?>
<svg id="_图层_1" data-name="图层 1" xmlns="http://www.w3.org/2000/svg" viewBox="0 0 100 100">
  <defs>
    <style>
      .cls-1 {
        fill: #10b0ff;
      }
    </style>
  </defs>
  <path class="cls-1" d="m84.59,85.46H15.41c-7.15,0-12.97-5.82-12.97-12.97v-30.81c0-7.15,5.82-12.97,12.97-12.97h69.17c7.15,0,12.97,5.82,12.97,12.97v30.81c0,7.15-5.82,12.97-12.97,12.97ZM15.41,34.7c-3.85,0-6.97,3.13-6.97,6.97v30.81c0,3.85,3.13,6.97,6.97,6.97h69.17c3.85,0,6.97-3.13,6.97-6.97v-30.81c0-3.85-3.13-6.97-6.97-6.97H15.41Z"/>
  <path class="cls-1" d="m50,46.82l2.09,4.23c.92,1.87,2.7,3.16,4.76,3.46l4.67.68-3.38,3.29c-1.49,1.45-2.17,3.55-1.82,5.6l.8,4.65-4.18-2.2c-.9-.47-1.92-.73-2.94-.73s-2.04.25-2.94.73l-4.18,2.2.8-4.65c.35-2.05-.33-4.14-1.82-5.6l-3.38-3.29,4.67-.68c2.06-.3,3.84-1.59,4.76-3.46l2.09-4.23m0-8.84c-.55,0-1.1.29-1.39.86l-4.98,10.09c-.22.46-.66.77-1.17.85l-11.14,1.62c-1.27.18-1.78,1.74-.86,2.64l8.06,7.86c.36.36.53.87.44,1.37l-1.9,11.09c-.17,1,.62,1.81,1.52,1.81.24,0,.48-.06.72-.18l9.96-5.24c.23-.12.47-.18.72-.18s.49.06.72.18l9.96,5.24c.24.12.48.18.72.18.9,0,1.7-.81,1.53-1.81l-1.9-11.09c-.09-.5.08-1.01.45-1.37l8.06-7.86c.92-.9.41-2.46-.86-2.64l-11.14-1.62c-.5-.07-.94-.39-1.17-.85l-4.98-10.09c-.28-.58-.84-.86-1.39-.86h0Z"/>
</svg>