<?xml version="1.0" encoding="UTF-8"?>
<svg id="_图层_1" data-name="图层 1" xmlns="http://www.w3.org/2000/svg" viewBox="0 0 100 100">
  <defs>
    <style>
      .cls-1 {
        fill: #10b0ff;
      }
    </style>
  </defs>
  <path class="cls-1" d="m84.59,85.46H15.41c-7.15,0-12.97-5.82-12.97-12.97v-30.81c0-7.15,5.82-12.97,12.97-12.97h69.17c7.15,0,12.97,5.82,12.97,12.97v30.81c0,7.15-5.82,12.97-12.97,12.97ZM15.41,34.7c-3.85,0-6.97,3.13-6.97,6.97v30.81c0,3.85,3.13,6.97,6.97,6.97h69.17c3.85,0,6.97-3.13,6.97-6.97v-30.81c0-3.85-3.13-6.97-6.97-6.97H15.41Z"/>
  <path class="cls-1" d="m51.39,38.84l4.98,10.09c.23.46.66.77,1.17.85l11.14,1.62c1.27.18,1.78,1.74.86,2.64l-8.06,7.86c-.36.36-.53.87-.45,1.37l1.9,11.09c.22,1.26-1.11,2.23-2.25,1.63l-9.96-5.24c-.45-.24-.99-.24-1.44,0l-9.96,5.24c-1.14.6-2.46-.37-2.25-1.63l1.9-11.09c.09-.5-.08-1.01-.45-1.37l-8.06-7.86c-.92-.9-.41-2.46.86-2.64l11.14-1.62c.5-.07.94-.39,1.17-.85l4.98-10.09c.57-1.15,2.21-1.15,2.78,0Z"/>
</svg>