<?xml version="1.0" encoding="UTF-8"?>
<svg id="_图层_1" data-name="图层 1" xmlns="http://www.w3.org/2000/svg" viewBox="0 0 100 100">
  <defs>
    <style>
      .cls-1 {
        fill: #10b0ff;
      }
    </style>
  </defs>
  <path class="cls-1" d="m84.59,86.67H15.41c-7.15,0-12.97-5.82-12.97-12.97V26.31c0-7.15,5.82-12.97,12.97-12.97h69.17c7.15,0,12.97,5.82,12.97,12.97v47.39c0,7.15-5.82,12.97-12.97,12.97ZM15.41,19.33c-3.85,0-6.97,3.13-6.97,6.97v47.39c0,3.85,3.13,6.97,6.97,6.97h69.17c3.85,0,6.97-3.13,6.97-6.97V26.31c0-3.85-3.13-6.97-6.97-6.97H15.41Z"/>
  <rect class="cls-1" x="5.44" y="63.51" width="89.12" height="6"/>
  <g>
    <rect class="cls-1" x="24.56" y="66.51" width="6" height="17.16"/>
    <rect class="cls-1" x="47" y="66.51" width="6" height="17.16"/>
    <rect class="cls-1" x="69.44" y="66.51" width="6" height="17.16"/>
  </g>
</svg>