<?xml version="1.0" encoding="UTF-8"?>
<svg id="_图层_1" data-name="图层 1" xmlns="http://www.w3.org/2000/svg" viewBox="0 0 100 100">
  <defs>
    <style>
      .cls-1 {
        fill: #10b0ff;
      }
    </style>
  </defs>
  <path class="cls-1" d="m57.72,54.55H13.79c-5.11,0-9.27-4.16-9.27-9.27v-22.67c0-5.11,4.16-9.27,9.27-9.27h43.93c5.11,0,9.27,4.16,9.27,9.27v22.67c0,5.11-4.16,9.27-9.27,9.27ZM13.79,19.33c-1.8,0-3.27,1.47-3.27,3.27v22.67c0,1.8,1.47,3.27,3.27,3.27h43.93c1.8,0,3.27-1.47,3.27-3.27v-22.67c0-1.81-1.47-3.27-3.27-3.27H13.79Z"/>
  <path class="cls-1" d="m73.34,68.93H27.79c-4.67,0-8.46-3.8-8.46-8.46v-2.7h6v2.7c0,1.36,1.11,2.46,2.46,2.46h45.55c1.36,0,2.46-1.11,2.46-2.46v-24.29c0-1.36-1.11-2.46-2.46-2.46h-2.91v-6h2.91c4.67,0,8.46,3.8,8.46,8.46v24.29c0,4.67-3.8,8.46-8.46,8.46Z"/>
  <path class="cls-1" d="m87.68,83.26h-45.55c-4.67,0-8.46-3.8-8.46-8.46v-2.7h6v2.7c0,1.36,1.11,2.46,2.46,2.46h45.55c1.36,0,2.46-1.11,2.46-2.46v-24.28c0-1.36-1.11-2.46-2.46-2.46h-2.91v-6h2.91c4.67,0,8.46,3.8,8.46,8.46v24.28c0,4.67-3.8,8.46-8.46,8.46Z"/>
</svg>