<?xml version="1.0" encoding="UTF-8"?>
<svg id="_图层_1" data-name="图层 1" xmlns="http://www.w3.org/2000/svg" viewBox="0 0 100 100">
  <defs>
    <style>
      .cls-1 {
        fill: #10b0ff;
      }
    </style>
  </defs>
  <g>
    <path class="cls-1" d="m56.96,39.35v10.95c0,1.68-1.36,3.04-3.03,3.04h-21.28c-1.65-.02-2.99-1.37-2.99-3.04v-10.95c0-1.68,1.36-3.04,3.03-3.04h21.24c1.67,0,3.03,1.36,3.03,3.04Z"/>
    <path class="cls-1" d="m68.96,51.35v10.96c0,1.67-1.36,3.03-3.03,3.03h-21.23c-1.68,0-3.04-1.36-3.04-3.03v-.34h21.28c1.67,0,3.03-1.36,3.03-3.04v-10.61c1.65.02,2.99,1.37,2.99,3.03Z"/>
    <path class="cls-1" d="m62.96,45.35v10.96c0,1.67-1.36,3.03-3.03,3.03h-21.23c-1.68,0-3.04-1.36-3.04-3.03v-.34h21.28c1.67,0,3.03-1.36,3.03-3.04v-10.61c1.65.02,2.99,1.37,2.99,3.03Z"/>
  </g>
  <path class="cls-1" d="m66.45,6.27l16.88,18.39v65.1c0,2.16-1.45,3.98-3.16,3.98H19.82c-1.71,0-3.15-1.82-3.15-3.98V10.24c0-2.16,1.44-3.98,3.15-3.98h46.63m2.64-6H19.82c-5.05,0-9.15,4.47-9.15,9.98v79.51c0,5.51,4.1,9.98,9.15,9.98h60.35c5.05,0,9.16-4.47,9.16-9.98V22.32L69.09.27h0Z"/>
</svg>