<?xml version="1.0" encoding="UTF-8"?>
<svg id="_图层_1" data-name="图层 1" xmlns="http://www.w3.org/2000/svg" viewBox="0 0 100 100">
  <defs>
    <style>
      .cls-1 {
        fill: #10b0ff;
      }
    </style>
  </defs>
  <path class="cls-1" d="m40.55,68.75c0,.68-.04,1.24-.12,1.7-.08.45-.19.81-.33,1.05-.14.25-.3.41-.48.49-.18.08-.38.1-.6.04l-21.41-4.75c-.13-.03-.25-.1-.36-.22-.11-.12-.21-.3-.3-.53-.09-.23-.15-.54-.2-.92-.05-.38-.07-.83-.07-1.35s.02-1,.06-1.36c.04-.36.1-.65.19-.86.09-.21.19-.36.3-.45.11-.09.24-.12.38-.1l6.18.94v-25.77l-5.38,4.03c-.37.25-.67.4-.9.47-.23.07-.41.03-.54-.12-.13-.15-.22-.42-.27-.81-.05-.39-.07-.94-.07-1.65,0-.45,0-.82.02-1.12.02-.29.05-.55.12-.76.06-.22.15-.4.26-.55s.26-.31.45-.5l7.18-6.68c.09-.1.21-.2.35-.28s.33-.17.55-.25c.23-.08.53-.17.91-.26.38-.1.88-.21,1.5-.35.77-.17,1.4-.29,1.89-.37.49-.08.87-.1,1.13-.08s.43.09.52.2c.09.12.13.27.13.47v35.57l7.39,1.13c.23.03.44.13.62.29.19.16.36.4.5.71.14.31.25.71.31,1.19.06.48.1,1.08.1,1.78Z"/>
  <path class="cls-1" d="m43.09,11.29c2.22,0,3,2.17,3,4.02v68.83c0,1.86-.79,4.02-3,4.02-.33,0-.68-.05-1.05-.14l-30.07-7.54c-.77-.19-2.64-2.31-2.64-5.37V24.33c0-3.06,1.87-5.17,2.64-5.37l30.07-7.54c.37-.09.72-.14,1.05-.14m0-5.62c-.84,0-1.71.11-2.6.33l-30.07,7.54c-4,1-7.08,5.81-7.08,10.8v50.79c0,4.98,3.08,9.79,7.08,10.8l30.07,7.54c.89.22,1.76.33,2.6.33,5.05,0,9-3.86,9-9.64V15.31c0-5.79-3.95-9.64-9-9.64h0Z"/>
  <path class="cls-1" d="m86.75,84.77c-.96,0-1.93-.1-2.91-.31l-3.4-1.14v-5.48l4.72,1.14c1.86.39,3.62.1,4.83-.81,1.02-.76,1.56-1.89,1.56-3.27V24.55c0-1.37-.54-2.5-1.56-3.27-1.21-.9-2.97-1.2-4.83-.81l-5.3,1.26v-5.48l3.98-1.26c3.65-.77,7.26-.08,9.9,1.9,2.46,1.84,3.82,4.56,3.82,7.66v50.35c0,3.1-1.35,5.82-3.82,7.66-1.93,1.45-4.38,2.21-6.99,2.21Z"/>
  <path class="cls-1" d="m64.33,89.26c-.98,0-1.98-.12-2.98-.36l-5.96-1.92v-5.44l7.46,1.92c1.64.39,3.18.15,4.33-.69,1.27-.92,1.97-2.47,1.97-4.35V21.05c0-1.88-.7-3.43-1.97-4.35-1.15-.84-2.7-1.08-4.33-.69l-7.46,1.92v-5.44l5.96-1.92c3.42-.83,6.89-.21,9.5,1.69,2.73,1.98,4.3,5.19,4.3,8.8v57.37c0,3.61-1.57,6.81-4.3,8.8-1.85,1.35-4.13,2.05-6.52,2.05Z"/>
</svg>