<?xml version="1.0" encoding="UTF-8"?>
<svg id="_图层_1" data-name="图层 1" xmlns="http://www.w3.org/2000/svg" viewBox="0 0 100 100">
  <defs>
    <style>
      .cls-1 {
        fill: #10b0ff;
      }
    </style>
  </defs>
  <path class="cls-1" d="m55.76,50l9.21-9.15c1.59-1.58,1.59-4.14,0-5.72-1.59-1.58-4.17-1.58-5.76,0l-9.21,9.15-9.21-9.15c-1.59-1.58-4.17-1.58-5.76,0-1.59,1.58-1.59,4.14,0,5.72l9.21,9.15-9.21,9.15c-1.59,1.58-1.59,4.14,0,5.72.8.79,1.84,1.19,2.88,1.19s2.09-.4,2.88-1.19l9.21-9.15,9.21,9.15c.8.79,1.84,1.19,2.88,1.19s2.09-.4,2.88-1.19c1.59-1.58,1.59-4.14,0-5.72l-9.21-9.15Z"/>
  <path class="cls-1" d="m66.45,6.27l16.88,18.39v65.1c0,2.16-1.45,3.98-3.16,3.98H19.82c-1.71,0-3.15-1.82-3.15-3.98V10.24c0-2.16,1.44-3.98,3.15-3.98h46.63m2.64-6H19.82c-5.05,0-9.15,4.47-9.15,9.98v79.51c0,5.51,4.1,9.98,9.15,9.98h60.35c5.05,0,9.16-4.47,9.16-9.98V22.32L69.09.27h0Z"/>
</svg>